<svg width="89" height="80" viewBox="0 0 89 80" fill="none" xmlns="http://www.w3.org/2000/svg">
<path d="M49 78.5035C43.9224 81.6968 38.0578 79.7809 34.0212 72.7429L26.519 59.676C26.4514 59.5602 26.4282 59.4235 26.4539 59.2917C26.4797 59.1599 26.5525 59.0421 26.6587 58.9607C27.0754 58.7208 27.4411 58.4007 27.7349 58.0186C28.0287 57.6365 28.2449 57.2 28.371 56.7338C28.4971 56.2677 28.5308 55.7811 28.47 55.3019C28.4093 54.8227 28.2553 54.3602 28.0169 53.9409C27.7786 53.5215 27.4604 53.1535 27.0807 52.8579C26.701 52.5623 26.2671 52.3448 25.8039 52.2179C25.3406 52.0909 24.8571 52.0571 24.3808 52.1182C23.9046 52.1793 23.445 52.3343 23.0282 52.5741C22.9086 52.6287 22.7735 52.6381 22.6476 52.6006C22.5217 52.563 22.4135 52.4811 22.3427 52.3698L13.7743 37.4252C13.7018 37.3041 13.6784 37.1595 13.7092 37.0215C13.7399 36.8835 13.8224 36.7627 13.9394 36.6844C15.105 35.9096 15.9328 34.7163 16.2538 33.3482C16.5748 31.9801 16.3648 30.5402 15.6666 29.3226C14.9685 28.105 13.8348 27.2015 12.497 26.7964C11.1593 26.3913 9.71831 26.5152 8.46827 27.1429C8.34293 27.2026 8.19969 27.2121 8.06766 27.1694C7.93563 27.1267 7.8247 27.035 7.75741 26.913L2.36249 17.5758C-0.379398 12.7731 -0.658664 8.4175 1.13118 5.237C1.1729 5.17646 1.22629 5.12499 1.28818 5.08564C1.35007 5.04629 1.41919 5.01987 1.49143 5.00796C1.56368 4.99604 1.63757 4.99887 1.7087 5.01627C1.77984 5.03368 1.84677 5.0653 1.90551 5.10927C2.45743 5.48657 3.07784 5.75072 3.73127 5.8866C4.38471 6.02249 5.05835 6.02745 5.71369 5.9012C6.89188 5.67821 7.95366 5.04292 8.71105 4.10782C9.46843 3.17271 9.87257 1.99811 9.85191 0.791958C9.83068 0.711244 9.82801 0.62672 9.84412 0.544813C9.86022 0.462906 9.89467 0.385772 9.94485 0.319273C9.99502 0.252774 10.0596 0.198662 10.1337 0.161049C10.2078 0.123436 10.2894 0.103313 10.3724 0.10221C11.0642 0.0330432 11.759 -0.00106148 12.4542 2.51659e-05H21.3399C10.8801 0.408765 6.7292 8.14927 12.1241 17.563L43.7828 72.7301C45.0291 75.0531 46.82 77.0349 49 78.5035Z" fill="#F49C00"/>
<path d="M12.3819 17.6741L44.258 73.19C45.5129 75.5277 47.3161 77.5221 49.5111 79C51.6881 77.5414 53.4817 75.5744 54.7386 73.2672L86.6148 17.7384C92.2001 7.95656 87.6373 0 76.4666 0H21.661C11.1293 0.411324 6.94986 8.20078 12.3819 17.6741Z" fill="#FFC306"/>
<path d="M39 31C41.2091 31 43 29.2091 43 27C43 24.7909 41.2091 23 39 23C36.7909 23 35 24.7909 35 27C35 29.2091 36.7909 31 39 31Z" fill="#282828"/>
<path d="M61 31C63.2091 31 65 29.2091 65 27C65 24.7909 63.2091 23 61 23C58.7909 23 57 24.7909 57 27C57 29.2091 58.7909 31 61 31Z" fill="#282828"/>
<path d="M49.9934 47C52.382 47.0007 54.694 46.1687 56.5214 44.6507C58.3488 43.1327 59.5741 41.0264 59.981 38.7035C60.0152 38.4941 60.0031 38.2798 59.9455 38.0754C59.8878 37.871 59.786 37.6813 59.647 37.5195C59.5081 37.3576 59.3352 37.2274 59.1404 37.1377C58.9456 37.048 58.7334 37.001 58.5184 37H41.4816C41.2666 37.001 41.0544 37.048 40.8596 37.1377C40.6648 37.2274 40.4919 37.3576 40.353 37.5195C40.214 37.6813 40.1122 37.871 40.0545 38.0754C39.9969 38.2798 39.9848 38.4941 40.019 38.7035C40.4255 41.0242 41.6489 43.1288 43.4736 44.6465C45.2982 46.1642 47.6071 46.9977 49.9934 47Z" fill="#FF4B33"/>
<path d="M24.4242 12.9268C23.4605 10.2693 25.4003 7.59928 25.4003 7.59928C26.0922 6.63406 26.2404 5.91954 25.7339 6.00729L25.2767 6.18279C24.4939 6.41477 23.7665 6.80774 23.1398 7.33726C22.5131 7.86677 22.0005 8.52149 21.634 9.26066C21.2675 9.99983 21.0548 10.8076 21.0093 11.6338C20.9637 12.4599 21.0863 13.2868 21.3693 14.0628C21.6523 14.8388 22.0897 15.5474 22.6543 16.1446C23.2189 16.7417 23.8985 17.2145 24.651 17.5336C25.4035 17.8527 26.2126 18.0112 27.0281 17.9994C27.8435 17.9875 28.6479 17.8055 29.391 17.4646L29.8482 17.2891C30.2929 17.0133 29.7246 16.5746 28.6126 16.2988C28.5756 16.3239 25.3879 15.5718 24.4242 12.9268Z" fill="#F49C00"/>
<path d="M48.7998 59.7257C48.5555 59.1176 48.4928 58.476 48.616 57.8473C48.7393 57.2186 49.0455 56.6184 49.5125 56.0902C50.1168 55.4217 50.2253 54.9174 49.7604 55.0113L49.3421 55.1403C48.6869 55.3443 48.0912 55.6441 47.5891 56.0224C47.0869 56.4007 46.6881 56.8501 46.4155 57.3451C46.1428 57.84 46.0017 58.3708 46 58.907C45.9984 59.4433 46.1363 59.9745 46.4059 60.4704C46.6755 60.9663 47.0715 61.4172 47.5713 61.7973C48.0711 62.1773 48.665 62.4792 49.3189 62.6855C49.9728 62.8919 50.6741 62.9987 51.3826 63C52.0911 63.0012 52.793 62.8969 53.4481 62.6928L53.8665 62.5638C54.2694 62.3644 53.727 62.083 52.6889 61.9305C51.8653 61.8041 51.0892 61.5407 50.4166 61.1594C49.744 60.778 49.1917 60.2884 48.7998 59.7257Z" fill="#F49C00"/>
<path d="M53.8334 14.947C53.6695 14.4268 53.6555 13.8848 53.7924 13.3599C53.9293 12.835 54.2137 12.3402 54.6252 11.911C55.163 11.3642 55.2825 10.9571 54.8941 11.0036L54.5505 11.0967C53.9254 11.2001 53.336 11.4063 52.8217 11.7017C52.3074 11.997 51.8802 12.3745 51.5686 12.809C51.2571 13.2434 51.0685 13.7247 51.0155 14.2206C50.9624 14.7164 51.0462 15.2154 51.2611 15.684C51.476 16.1526 51.8171 16.58 52.2616 16.9375C52.706 17.295 53.2435 17.5744 53.838 17.7568C54.4325 17.9393 55.0702 18.0207 55.7084 17.9955C56.3466 17.9704 56.9705 17.8392 57.5382 17.6109L57.8818 17.5178C58.2254 17.3666 57.7922 17.1107 56.9407 16.9362C56.2649 16.8063 55.635 16.5603 55.0973 16.2161C54.5596 15.8718 54.1277 15.4382 53.8334 14.947Z" fill="#F49C00"/>
</svg>
