<svg width="26" height="25" viewBox="0 0 26 25" fill="none" xmlns="http://www.w3.org/2000/svg">
<path d="M22.1914 4.39453C23.4514 4.39453 24.4766 5.38022 24.4766 6.5918H26C26 2.95708 23.2663 0 19.9062 0C16.775 0 14.1882 2.56812 13.8503 5.85938H12.1497C11.8118 2.56812 9.22497 0 6.09375 0C2.73366 0 0 2.95708 0 6.5918H1.52344C1.52344 5.38022 2.54856 4.39453 3.80859 4.39453C5.06863 4.39453 6.09375 5.38022 6.09375 6.5918V7.32422H1.52344V8.05664C1.52344 10.0759 3.23197 11.7188 5.33203 11.7188H6.09375V12.4512C6.09375 13.6627 5.06863 14.6484 3.80859 14.6484V16.1133C5.01064 16.1133 6.516 18.0043 7.27822 19.8339L8.42573 22.6899L8.42898 22.6979C9.01073 24.0964 10.3987 25 11.9652 25H14.0349C15.6013 25 16.9893 24.0964 17.5711 22.6979L19.5568 17.8268C19.991 16.7858 21.0248 16.1133 22.1914 16.1133V14.6484C20.9314 14.6484 19.9062 13.6627 19.9062 12.4512V11.7188H20.668C22.768 11.7188 24.4766 10.0759 24.4766 8.05664V7.32422H19.9062V6.5918C19.9062 5.38022 20.9314 4.39453 22.1914 4.39453ZM3.80859 2.92969C3.45191 2.92969 3.10664 2.97705 2.77895 3.06563C3.61237 2.08022 4.7902 1.46484 6.09375 1.46484C8.39216 1.46484 10.2995 3.37808 10.6172 5.85938H9.90234C9.04561 5.85938 8.25419 6.13296 7.61719 6.5938V6.5918C7.61719 4.57251 5.90865 2.92969 3.80859 2.92969ZM5.33203 10.2539C4.3389 10.2539 3.49177 9.64165 3.17738 8.78906H6.17038C6.12021 9.02578 6.09375 9.2707 6.09375 9.52148V10.2539H5.33203ZM13 19.043C12.58 19.043 12.2383 18.7144 12.2383 18.3105V17.5781H13.7617V18.3105C13.7617 18.7144 13.42 19.043 13 19.043ZM18.1414 17.285L16.1556 22.1562C15.806 22.994 14.9739 23.5352 14.0349 23.5352H13.7617V20.3818C14.6483 20.0795 15.2852 19.2654 15.2852 18.3105V16.1133H10.7148V18.3105C10.7148 19.2654 11.3517 20.0795 12.2383 20.3818V23.5352H11.9652C11.0268 23.5352 10.195 22.9946 9.84506 22.1578L8.69761 19.3019L8.69431 19.2938C8.21646 18.1451 7.24273 16.467 5.9572 15.4735C6.95876 14.813 7.61719 13.7046 7.61719 12.4512V9.52148C7.61719 8.30991 8.64231 7.32422 9.90234 7.32422H16.0977C17.3577 7.32422 18.3828 8.30991 18.3828 9.52148V12.4512C18.3828 13.61 18.9455 14.6448 19.8219 15.3163C19.0803 15.7768 18.4868 16.4547 18.1414 17.285ZM22.8226 8.78906C22.5083 9.64165 21.6611 10.2539 20.668 10.2539H19.9062V9.52148C19.9062 9.27075 19.8798 9.02583 19.8296 8.78906H22.8226ZM18.3828 6.5918V6.5938C17.7458 6.13296 16.9544 5.85938 16.0977 5.85938H15.3828C15.7005 3.37808 17.6078 1.46484 19.9062 1.46484C21.2098 1.46484 22.3876 2.08022 23.221 3.06563C22.8934 2.97705 22.5481 2.92969 22.1914 2.92969C20.0913 2.92969 18.3828 4.57251 18.3828 6.5918Z" fill="black"/>
<path d="M10.6641 11.7188H9.14062V13.1836H10.6641V11.7188Z" fill="black"/>
<path d="M15.3359 11.7188C15.3359 12.2584 15.3359 12.6438 15.3359 13.1836H16.8594C16.8594 12.4293 16.8594 12.4776 16.8594 11.7188H15.3359Z" fill="black"/>
</svg>
