<svg width="64" height="64" viewBox="0 0 64 64" fill="none" xmlns="http://www.w3.org/2000/svg">
<circle cx="32" cy="32" r="32" fill="url(#paint0_linear)"/>
<path d="M24.7305 25.6055C26.5898 23.7461 28.832 22.8164 31.457 22.8164C34.082 22.8164 36.2969 23.7461 38.1016 25.6055C39.9609 27.4102 40.8906 29.625 40.8906 32.25C40.8906 34.875 39.9609 37.1172 38.1016 38.9766C36.2969 40.7812 34.082 41.6836 31.457 41.6836C28.832 41.6836 26.5898 40.7812 24.7305 38.9766C22.9258 37.1172 22.0234 34.875 22.0234 32.25C22.0234 29.625 22.9258 27.4102 24.7305 25.6055ZM27.1094 36.5977C28.3125 37.8008 29.7617 38.4023 31.457 38.4023C33.1523 38.4023 34.6016 37.8008 35.8047 36.5977C37.0078 35.3945 37.6094 33.9453 37.6094 32.25C37.6094 30.5547 37.0078 29.1055 35.8047 27.9023C34.6016 26.6992 33.1523 26.0977 31.457 26.0977C29.7617 26.0977 28.3125 26.6992 27.1094 27.9023C25.9062 29.1055 25.3047 30.5547 25.3047 32.25C25.3047 33.9453 25.9062 35.3945 27.1094 36.5977ZM42.7773 20.9297C43.2148 21.3125 43.4336 21.8047 43.4336 22.4062C43.4336 23.0078 43.2148 23.5273 42.7773 23.9648C42.3945 24.4023 41.9023 24.6211 41.3008 24.6211C40.6992 24.6211 40.1797 24.4023 39.7422 23.9648C39.3047 23.5273 39.0859 23.0078 39.0859 22.4062C39.0859 21.8047 39.3047 21.3125 39.7422 20.9297C40.1797 20.4922 40.6992 20.2734 41.3008 20.2734C41.9023 20.2734 42.3945 20.4922 42.7773 20.9297ZM49.75 24.7031C49.8047 26.1797 49.832 28.6953 49.832 32.25C49.832 35.8047 49.8047 38.3203 49.75 39.7969C49.5859 43.1328 48.5742 45.7305 46.7148 47.5898C44.9102 49.3945 42.3398 50.3516 39.0039 50.4609C37.5273 50.5703 35.0117 50.625 31.457 50.625C27.9023 50.625 25.3867 50.5703 23.9102 50.4609C20.5742 50.2969 18.0039 49.3125 16.1992 47.5078C15.4883 46.8516 14.9141 46.0859 14.4766 45.2109C14.0391 44.3359 13.7109 43.4883 13.4922 42.668C13.3281 41.8477 13.2461 40.8906 13.2461 39.7969C13.1367 38.3203 13.082 35.8047 13.082 32.25C13.082 28.6953 13.1367 26.1523 13.2461 24.6211C13.4102 21.3398 14.3945 18.7969 16.1992 16.9922C18.0039 15.1328 20.5742 14.1211 23.9102 13.957C25.3867 13.9023 27.9023 13.875 31.457 13.875C35.0117 13.875 37.5273 13.9023 39.0039 13.957C42.3398 14.1211 44.9102 15.1328 46.7148 16.9922C48.5742 18.7969 49.5859 21.3672 49.75 24.7031ZM45.8125 43.0781C45.9766 42.6406 46.1133 42.0938 46.2227 41.4375C46.332 40.7266 46.4141 39.9062 46.4688 38.9766C46.5234 37.9922 46.5508 37.1992 46.5508 36.5977C46.5508 35.9961 46.5508 35.1484 46.5508 34.0547C46.5508 32.9609 46.5508 32.3594 46.5508 32.25C46.5508 32.0859 46.5508 31.4844 46.5508 30.4453C46.5508 29.3516 46.5508 28.5039 46.5508 27.9023C46.5508 27.3008 46.5234 26.5352 46.4688 25.6055C46.4141 24.6211 46.332 23.8008 46.2227 23.1445C46.1133 22.4336 45.9766 21.8594 45.8125 21.4219C45.1562 19.7266 43.9805 18.5508 42.2852 17.8945C41.8477 17.7305 41.2734 17.5938 40.5625 17.4844C39.9062 17.375 39.0859 17.293 38.1016 17.2383C37.1719 17.1836 36.4062 17.1562 35.8047 17.1562C35.2578 17.1562 34.4102 17.1562 33.2617 17.1562C32.168 17.1562 31.5664 17.1562 31.457 17.1562C31.3477 17.1562 30.7461 17.1562 29.6523 17.1562C28.5586 17.1562 27.7109 17.1562 27.1094 17.1562C26.5078 17.1562 25.7148 17.1836 24.7305 17.2383C23.8008 17.293 22.9805 17.375 22.2695 17.4844C21.6133 17.5938 21.0664 17.7305 20.6289 17.8945C18.9336 18.5508 17.7578 19.7266 17.1016 21.4219C16.9375 21.8594 16.8008 22.4336 16.6914 23.1445C16.582 23.8008 16.5 24.6211 16.4453 25.6055C16.3906 26.5352 16.3633 27.3008 16.3633 27.9023C16.3633 28.4492 16.3633 29.2969 16.3633 30.4453C16.3633 31.5391 16.3633 32.1406 16.3633 32.25C16.3633 32.4688 16.3633 32.9883 16.3633 33.8086C16.3633 34.5742 16.3633 35.2305 16.3633 35.7773C16.3633 36.2695 16.3633 36.9258 16.3633 37.7461C16.418 38.5664 16.4727 39.2773 16.5273 39.8789C16.582 40.4258 16.6641 41 16.7734 41.6016C16.8828 42.2031 16.9922 42.6953 17.1016 43.0781C17.8125 44.7734 18.9883 45.9492 20.6289 46.6055C21.0664 46.7695 21.6133 46.9062 22.2695 47.0156C22.9805 47.125 23.8008 47.207 24.7305 47.2617C25.7148 47.3164 26.4805 47.3438 27.0273 47.3438C27.6289 47.3438 28.4766 47.3438 29.5703 47.3438C30.7188 47.3438 31.3477 47.3438 31.457 47.3438C31.6211 47.3438 32.2227 47.3438 33.2617 47.3438C34.3555 47.3438 35.2031 47.3438 35.8047 47.3438C36.4062 47.3438 37.1719 47.3164 38.1016 47.2617C39.0859 47.207 39.9062 47.125 40.5625 47.0156C41.2734 46.9062 41.8477 46.7695 42.2852 46.6055C43.9805 45.8945 45.1562 44.7188 45.8125 43.0781Z" fill="white"/>
<defs>
<linearGradient id="paint0_linear" x1="32" y1="0" x2="32" y2="64" gradientUnits="userSpaceOnUse">
<stop stop-color="#FF18BE"/>
<stop offset="1" stop-color="#D118FF"/>
</linearGradient>
</defs>
</svg>
