<svg width="16" height="22" viewBox="0 0 16 22" fill="none" xmlns="http://www.w3.org/2000/svg">
<path d="M7.05469 21.2148C6.34375 20.1758 5.42773 18.8633 4.30664 17.2773C2.93945 15.3086 2.03711 13.9824 1.59961 13.2988C0.970703 12.3145 0.546875 11.4941 0.328125 10.8379C0.109375 10.1543 0 9.375 0 8.5C0 7.07812 0.355469 5.76562 1.06641 4.5625C1.77734 3.35938 2.73438 2.40234 3.9375 1.69141C5.14062 0.980469 6.45312 0.625 7.875 0.625C9.29688 0.625 10.6094 0.980469 11.8125 1.69141C13.0156 2.40234 13.9727 3.35938 14.6836 4.5625C15.3945 5.76562 15.75 7.07812 15.75 8.5C15.75 9.375 15.6406 10.1543 15.4219 10.8379C15.2031 11.4941 14.7793 12.3145 14.1504 13.2988C13.7129 13.9824 12.8105 15.3086 11.4434 17.2773L8.69531 21.2148C8.50391 21.4883 8.23047 21.625 7.875 21.625C7.51953 21.625 7.24609 21.4883 7.05469 21.2148ZM7.875 11.7812C8.77734 11.7812 9.54297 11.4668 10.1719 10.8379C10.8281 10.1816 11.1562 9.40234 11.1562 8.5C11.1562 7.59766 10.8281 6.83203 10.1719 6.20312C9.54297 5.54688 8.77734 5.21875 7.875 5.21875C6.97266 5.21875 6.19336 5.54688 5.53711 6.20312C4.9082 6.83203 4.59375 7.59766 4.59375 8.5C4.59375 9.40234 4.9082 10.1816 5.53711 10.8379C6.19336 11.4668 6.97266 11.7812 7.875 11.7812Z" fill="#1890FF"/>
</svg>
