<svg width="26" height="26" viewBox="0 0 26 26" fill="none" xmlns="http://www.w3.org/2000/svg">
<g clip-path="url(#clip0)">
<path d="M19.5772 4.95831C19.3298 3.81931 18.3868 2.93559 17.2174 2.7767C16.9274 2.01399 16.2002 1.46552 15.3441 1.43755C14.8981 0.57486 13.9958 0 12.9879 0C11.9798 0 11.0775 0.57486 10.6315 1.43755C9.77539 1.46552 9.04819 2.01399 8.75818 2.7767C7.5912 2.9352 6.65036 3.81514 6.40002 4.95058L0 10.0475L1.20605 10.5381C1.26695 10.5631 2.7162 11.1455 4.43681 11.2135C4.46935 11.2151 4.50168 11.2161 4.53381 11.2165C4.59273 14.1344 5.71587 16.6084 6.5121 18.3626C6.9001 19.2167 7.23474 19.9545 7.27699 20.3734C7.29068 20.5126 7.30238 20.6644 7.31508 20.8255C7.45473 22.6338 7.71478 26 12.9879 26C18.261 26 18.5209 22.6338 18.6605 20.8255C18.6732 20.6644 18.6849 20.5126 18.6986 20.3734C18.7409 19.9545 19.0755 19.2167 19.4635 18.3626C20.2572 16.6142 21.3759 14.1501 21.4414 11.2445C21.4694 11.2441 21.4977 11.2429 21.5257 11.2419C23.2634 11.1725 24.7275 10.5843 24.7888 10.5595L25.9948 10.069L19.5772 4.95831ZM4.93193 8.06767L6.59799 6.74062C6.70015 6.95802 6.82849 7.16016 6.98044 7.34305C7.25716 7.6767 7.60965 7.94528 8.01173 8.12143C7.58307 8.81055 6.96457 9.27472 6.16179 9.51176C5.70178 9.64784 5.18127 9.70894 4.60185 9.69466C4.57904 9.69406 4.55603 9.69307 4.53282 9.69267C4.02382 9.67542 3.53644 9.60162 3.1169 9.51276L4.93193 8.06767ZM10.1471 3.52057V3.5045C10.1511 3.20319 10.3975 2.95999 10.6996 2.95999C10.7626 2.95999 10.8245 2.9707 10.8839 2.99153L11.7102 3.28293L11.8838 2.42421C11.9895 1.90231 12.4541 1.52344 12.9879 1.52344C13.5215 1.52344 13.9863 1.90231 14.0918 2.42421L14.266 3.28293L15.0918 2.99153C15.1511 2.9707 15.213 2.95999 15.276 2.95999C15.5781 2.95999 15.8245 3.20319 15.8285 3.5045V3.52057L15.8259 3.75325L15.8199 4.38802L16.681 4.28447C16.7364 4.27773 16.7878 4.27435 16.8376 4.27435C17.5433 4.27435 18.1178 4.84862 18.1178 5.5544C18.1178 5.81743 18.0381 6.06181 17.9014 6.26534C17.6719 6.60811 17.2803 6.83464 16.8376 6.83464C16.7878 6.83464 16.7364 6.83167 16.681 6.82492L15.859 6.72455L15.8281 7.55272C15.8168 7.85086 15.5742 8.08434 15.276 8.08434C15.2018 8.08434 15.1302 8.06966 15.0628 8.04169L14.3187 7.72986L14.0501 8.49059C13.8916 8.94008 13.4646 9.24219 12.9879 9.24219C12.511 9.24219 12.084 8.94008 11.9255 8.49059L11.6569 7.72986L10.9128 8.04169C10.8454 8.06966 10.7738 8.08434 10.6996 8.08434C10.4014 8.08434 10.1588 7.85086 10.1475 7.55272L10.1172 6.72455L9.29456 6.82492C9.23921 6.83167 9.18784 6.83464 9.13805 6.83464C8.6947 6.83464 8.30333 6.60811 8.07362 6.26494C7.93755 6.06122 7.8578 5.81703 7.8578 5.5544C7.8578 4.84862 8.43227 4.27435 9.13805 4.27435C9.18784 4.27435 9.23921 4.27773 9.29456 4.28447L10.1557 4.38802L10.1497 3.75325L10.1471 3.52057ZM21.4297 9.72064C21.4118 9.72104 21.3946 9.72163 21.3769 9.72203C20.7995 9.7379 20.28 9.67998 19.8194 9.54846C18.9922 9.31439 18.3554 8.84467 17.9147 8.14285C18.3372 7.9671 18.7073 7.68979 18.9948 7.34305C19.1461 7.16174 19.2741 6.961 19.3756 6.74518L21.0462 8.07581L22.8789 9.53517C22.4509 9.62662 21.9518 9.70279 21.4297 9.72064V9.72064ZM18.0761 17.7328C17.6145 18.75 17.2494 19.5534 17.1829 20.222C17.167 20.378 17.1549 20.5384 17.1416 20.708C17.0762 21.5582 17.0016 22.5221 16.4861 23.2396C15.8884 24.0719 14.7438 24.4766 12.9879 24.4766C11.2318 24.4766 10.0872 24.0719 9.48955 23.2396C8.974 22.5221 8.89941 21.5582 8.83395 20.708C8.82066 20.5384 8.80856 20.3786 8.79269 20.222C8.72565 19.5534 8.36105 18.75 7.89946 17.7328C7.11037 15.9951 6.08363 13.7334 6.05368 11.1058C7.43945 10.8454 8.52213 10.1396 9.24734 9.01923C9.62146 9.38441 10.1338 9.60777 10.6996 9.60777C10.7321 9.60777 10.764 9.60678 10.7966 9.60519C11.2822 10.3183 12.098 10.7656 12.9879 10.7656C13.8776 10.7656 14.6936 10.3183 15.179 9.60519C15.2116 9.60678 15.2435 9.60777 15.276 9.60777C15.8223 9.60777 16.319 9.39909 16.6892 9.05632C17.4261 10.1777 18.5215 10.8815 19.9215 11.1384C19.8834 13.7516 18.8623 16.0022 18.0761 17.7328V17.7328Z" fill="black"/>
<path d="M13.8262 19.9316C13.8262 20.3795 13.4614 20.7441 13.0137 20.7441C12.5658 20.7441 12.2012 20.3795 12.2012 19.9316H10.6777C10.6777 20.9433 11.3246 21.8076 12.2266 22.1309V23.207H13.75V22.1488C14.6781 21.8395 15.3496 20.9625 15.3496 19.9316H13.8262Z" fill="black"/>
<path d="M10.791 13.6687C10.791 14.1874 10.3705 14.6082 9.85156 14.6082C9.33284 14.6082 8.91211 14.1874 8.91211 13.6687C8.91211 13.1498 9.33284 12.7292 9.85156 12.7292C10.3705 12.7292 10.791 13.1498 10.791 13.6687Z" fill="black"/>
<path d="M17.0635 13.6687C17.0635 14.1874 16.6427 14.6082 16.124 14.6082C15.6051 14.6082 15.1846 14.1874 15.1846 13.6687C15.1846 13.1498 15.6051 12.7292 16.124 12.7292C16.6427 12.7292 17.0635 13.1498 17.0635 13.6687Z" fill="black"/>
</g>
<defs>
<clipPath id="clip0">
<rect width="26" height="26" fill="white"/>
</clipPath>
</defs>
</svg>
