<svg width="34" height="25" viewBox="0 0 34 25" fill="none" xmlns="http://www.w3.org/2000/svg">
<path d="M15.2355 18.1003C14.2294 17.4023 13.0204 17.8153 12.9696 17.8335C12.6958 17.9295 12.5517 18.23 12.6481 18.5037C12.7442 18.7779 13.0446 18.9212 13.3187 18.8255C13.3261 18.8231 14.0766 18.5756 14.6364 18.9644C15.1535 19.323 15.0662 20.3077 15.0655 20.3154C15.0332 20.6039 15.2408 20.864 15.5293 20.8962C15.5493 20.8987 15.5689 20.8997 15.5885 20.8997C15.8525 20.8997 16.0803 20.7013 16.1105 20.4325C16.1175 20.3673 16.2777 18.8231 15.2355 18.1003Z" fill="black"/>
<path d="M21.0295 17.8335C20.9786 17.8152 19.7696 17.4026 18.7632 18.1002C17.721 18.8234 17.8815 20.3672 17.8892 20.4324C17.9194 20.7013 18.1465 20.8987 18.4105 20.8987C18.4298 20.8987 18.4487 20.8976 18.468 20.8955C18.7558 20.8643 18.9644 20.6053 18.9342 20.3171C18.9332 20.3076 18.8459 19.3226 19.3626 18.9643C19.9172 18.5801 20.6631 18.8199 20.6835 18.8266C20.9576 18.9216 21.2556 18.7768 21.3513 18.5037C21.4473 18.2299 21.3036 17.9295 21.0295 17.8335Z" fill="black"/>
<path d="M33.6918 4.42042C33.2925 3.47079 32.6254 2.54954 31.9474 2.8121C31.7469 2.88993 31.3158 3.17072 31.646 4.09757C31.7308 4.33629 31.7042 4.59675 31.5675 4.87158C31.3266 5.35534 30.7784 5.79177 30.1705 5.98352C29.3604 6.23872 26.9742 5.75076 25.1272 3.46693C23.4344 1.37275 22.1601 0 19.9618 0C19.172 0 17.7625 0.786632 17 1.86562C16.2376 0.786632 14.828 0 14.0382 0C11.84 0 10.5661 1.37275 8.87291 3.46693C7.02552 5.75146 4.63968 6.24012 3.82991 5.98387C3.22171 5.79212 2.67345 5.35569 2.43262 4.87193C2.29591 4.59675 2.26927 4.33629 2.3541 4.09757C2.68397 3.17037 2.25279 2.88958 2.05228 2.81175C1.37291 2.54814 0.70722 3.47079 0.308295 4.42007C-0.0702983 5.32133 -0.22454 6.83956 0.58593 8.15237C1.19203 9.13461 2.57494 10.3496 5.71832 10.5606C5.92479 10.5743 6.13442 10.5813 6.3472 10.5813C7.26319 10.5813 8.23526 10.4523 9.21014 10.2203C8.97492 11.5797 8.8673 14.3164 11.0134 16.7363C10.3172 17.4784 10.0297 18.5086 10.2222 19.6844C10.4434 21.0333 11.4768 22.3598 12.9491 23.1611C13.0304 23.199 13.7582 23.5338 14.1935 23.6372C14.4179 23.6901 14.638 23.7353 14.8379 23.7718C15.5337 23.9208 16.2488 24.0017 16.9632 24.013C16.9657 24.013 16.9685 24.013 16.9713 24.013C16.9811 24.013 16.9899 24.0105 16.9997 24.0102C17.0092 24.0105 17.0183 24.013 17.0281 24.013C17.0309 24.013 17.0337 24.013 17.0361 24.013C17.7509 24.0021 18.466 23.9208 19.1454 23.7749C19.362 23.736 19.5818 23.6905 19.8062 23.6372C20.2419 23.5338 20.9693 23.199 21.0811 23.1461C22.5233 22.3594 23.5567 21.0333 23.7776 19.684C23.9697 18.5114 23.6847 17.4833 22.992 16.7415C25.1412 14.322 25.0353 11.5842 24.8001 10.2231C25.7715 10.4534 26.7397 10.5817 27.6522 10.5817C27.865 10.5817 28.0749 10.5747 28.2814 10.561C31.4241 10.3503 32.8066 9.13566 33.4134 8.15342C34.2246 6.84026 34.0704 5.32204 33.6918 4.42042ZM5.78878 9.51145C3.65429 9.36842 2.16445 8.70764 1.48088 7.60025C0.880391 6.62748 0.996072 5.49836 1.27791 4.82741C1.28387 4.81304 1.28983 4.79902 1.29579 4.78534C1.33435 4.97079 1.39955 5.15693 1.49105 5.34026C1.85807 6.07782 2.63314 6.70881 3.51336 6.98679C4.75536 7.37871 7.57763 6.74141 9.69074 4.12807C11.4445 1.95887 12.4366 1.05165 14.0382 1.05165C14.6479 1.05165 16.4742 2.23615 16.4742 3.33022C16.4742 4.2143 15.9274 5.19303 14.8932 6.16055C12.6403 8.2677 8.72638 9.7074 5.78878 9.51145ZM17.0011 9.30848C16.4588 8.32449 15.7258 7.68824 15.1754 7.31385C15.3258 7.18801 15.4716 7.06006 15.6119 6.92895C16.2159 6.36422 16.6789 5.78231 17.0004 5.19829C17.3218 5.78196 17.7849 6.36387 18.3889 6.92895C18.5295 7.06041 18.676 7.18906 18.8267 7.31526C18.2802 7.68789 17.5451 8.32519 17.0011 9.30848ZM22.7396 19.5144C22.5724 20.5345 21.724 21.5977 20.6079 22.2076C20.3376 22.3331 19.8146 22.5547 19.5636 22.6139C19.3582 22.663 19.1563 22.7044 18.9417 22.7436C18.3132 22.8786 17.6668 22.9518 17.0211 22.9613C17.0141 22.9613 17.0074 22.9634 17.0004 22.9638C16.9934 22.9634 16.9867 22.9613 16.9797 22.9613C16.334 22.9518 15.6876 22.8786 15.0426 22.7405C14.8445 22.7044 14.6422 22.6626 14.4365 22.6139C14.1546 22.5477 13.5874 22.2981 13.4227 22.2227C12.2764 21.598 11.4277 20.5348 11.2605 19.5144C11.1329 18.7358 11.21 17.675 12.302 17.0423C12.9992 16.6381 13.6004 16.6244 14.0975 16.6676C14.6819 16.7163 15.1632 16.9424 15.6287 17.1608C16.0525 17.3599 16.4549 17.545 16.9061 17.5941C16.9208 17.5969 16.9352 17.6 16.9503 17.6014C16.9524 17.6014 16.9541 17.6021 16.9562 17.6025C16.9737 17.6042 16.9909 17.6021 17.0081 17.6021C17.0204 17.6018 17.0326 17.6035 17.0453 17.6025C17.0467 17.6025 17.0481 17.6018 17.0495 17.6018C17.0691 17.6 17.0877 17.5962 17.1066 17.5923C17.5532 17.5411 17.9521 17.3585 18.3724 17.1608C18.838 16.9424 19.3193 16.7159 19.904 16.6676C20.4 16.6248 21.0023 16.6385 21.6995 17.0423C22.7904 17.675 22.8672 18.7358 22.7396 19.5144ZM22.1577 16.0972C21.2315 15.5823 20.421 15.5696 19.8153 15.6194C19.0423 15.6843 18.4485 15.963 17.9241 16.2094C17.5753 16.3731 17.2728 16.5123 16.9997 16.547C16.7263 16.5123 16.4237 16.3731 16.0749 16.2094C15.5512 15.9633 14.9574 15.6843 14.1841 15.6194C13.5804 15.5703 12.7714 15.583 11.8487 16.0937C9.59118 13.5971 10.1458 10.6847 10.3522 9.90021C11.7509 9.4494 13.1114 8.79492 14.278 7.99112C14.8382 8.30556 16.0245 9.14758 16.4931 10.833C16.4938 10.8362 16.4959 10.8383 16.497 10.8414C16.5114 10.8898 16.5331 10.9354 16.5608 10.9774C16.5668 10.9862 16.5724 10.9946 16.5787 11.003C16.6078 11.0426 16.6411 11.0788 16.6807 11.1089C16.6852 11.1124 16.6905 11.1149 16.6951 11.1184C16.7319 11.1447 16.7725 11.1657 16.8164 11.1822C16.8248 11.1853 16.8328 11.1892 16.8416 11.192C16.8475 11.1937 16.8528 11.1969 16.8588 11.1986C16.9043 11.2113 16.9506 11.2169 16.9962 11.2172C16.9972 11.2172 16.9983 11.2179 16.9993 11.2179H16.9997H17C17.0011 11.2179 17.0021 11.2172 17.0032 11.2172C17.0488 11.2169 17.0947 11.2113 17.1406 11.1986C17.1466 11.1969 17.1518 11.1937 17.1578 11.192C17.1665 11.1892 17.1743 11.1853 17.183 11.1822C17.2268 11.1657 17.2675 11.1447 17.3043 11.1184C17.3092 11.1149 17.3141 11.1124 17.3187 11.1089C17.3583 11.0788 17.3916 11.0423 17.4207 11.003C17.427 10.9946 17.433 10.9862 17.4386 10.9774C17.4659 10.9354 17.4877 10.8898 17.5024 10.8414C17.5034 10.8383 17.5055 10.8362 17.5062 10.833C17.9742 9.14968 19.1724 8.3024 19.7221 7.99147C20.8915 8.79738 22.2558 9.45291 23.6584 9.90371C23.8662 10.6956 24.4148 13.6045 22.1577 16.0972ZM32.5185 7.60095C31.8349 8.70799 30.3454 9.36877 28.2109 9.5118C25.2797 9.70495 21.3595 8.2684 19.1065 6.1609C18.0724 5.19373 17.5255 4.215 17.5255 3.33057C17.5255 2.2365 19.3519 1.052 19.9615 1.052C21.5635 1.052 22.5552 1.95887 24.309 4.12842C26.4217 6.74141 29.2447 7.37976 30.4864 6.98679C31.3666 6.70916 32.1417 6.07817 32.5087 5.34026C32.6002 5.15658 32.665 4.97079 32.7039 4.78534C32.7102 4.79937 32.7159 4.81339 32.7222 4.82776C33.004 5.49871 33.1197 6.62748 32.5185 7.60095Z" fill="black"/>
<path d="M11.9211 11.9189H11.9176C11.4335 11.9189 11.043 12.3112 11.043 12.7953C11.043 13.2794 11.437 13.6717 11.9211 13.6717C12.4052 13.6717 12.7975 13.2794 12.7975 12.7953C12.7975 12.3112 12.4052 11.9189 11.9211 11.9189Z" fill="black"/>
<path d="M22.0834 13.6717C22.5675 13.6717 22.9598 13.2795 22.9598 12.7954V12.7919C22.9598 12.3077 22.5675 11.9172 22.0834 11.9172C21.5993 11.9172 21.207 12.3113 21.207 12.7954C21.207 13.2795 21.5993 13.6717 22.0834 13.6717Z" fill="black"/>
</svg>
