<svg width="26" height="25" viewBox="0 0 26 25" fill="none" xmlns="http://www.w3.org/2000/svg">
<path d="M26 0.78125V0H24.4766V0.78125C24.4766 2.62393 23.0724 4.15654 21.239 4.44336H4.76105C2.92764 4.15654 1.52344 2.62393 1.52344 0.78125V0H0V0.78125C0 2.43164 0.807523 3.9041 2.06263 4.85249C0.838754 5.4623 0 6.69106 0 8.10547V10.3516H2.33594C3.29733 10.3516 4.176 10.0065 4.84692 9.4395L5.41587 20.135C5.561 22.863 7.90009 25 10.7409 25H15.2591C18.0999 25 20.439 22.863 20.5841 20.135L21.1531 9.4395C21.824 10.0065 22.7027 10.3516 23.6641 10.3516H26V8.10547C26 6.69106 25.1612 5.4623 23.9374 4.85249C25.1925 3.9041 26 2.43164 26 0.78125ZM4.62109 6.68945C4.62109 7.90103 3.59597 8.88672 2.33594 8.88672H1.52344V8.10547C1.52344 6.8939 2.54856 5.9082 3.80859 5.9082H4.62109V6.68945ZM19.0627 20.0602C18.959 22.0087 17.2883 23.5352 15.2591 23.5352H10.7409C8.71173 23.5352 7.04097 22.0087 6.93733 20.0601L6.86908 18.777C8.45274 17.1429 10.67 16.2109 13 16.2109C15.33 16.2109 17.5472 17.1429 19.1309 18.777L19.0627 20.0602ZM19.2324 16.8696C17.4819 15.5061 15.2871 14.7461 13 14.7461C10.7129 14.7461 8.5181 15.5061 6.76762 16.8696L6.1845 5.9082H19.8155L19.2324 16.8696ZM24.4766 8.10547V8.88672H23.6641C22.404 8.88672 21.3789 7.90103 21.3789 6.68945V5.9082H22.1914C23.4514 5.9082 24.4766 6.8939 24.4766 8.10547Z" fill="#333333"/>
<path d="M10.4609 22.0703C11.0219 22.0703 11.4766 21.6331 11.4766 21.0938C11.4766 20.5544 11.0219 20.1172 10.4609 20.1172C9.90002 20.1172 9.44531 20.5544 9.44531 21.0938C9.44531 21.6331 9.90002 22.0703 10.4609 22.0703Z" fill="#333333"/>
<path d="M15.5391 22.0703C16.1 22.0703 16.5547 21.6331 16.5547 21.0938C16.5547 20.5544 16.1 20.1172 15.5391 20.1172C14.9781 20.1172 14.5234 20.5544 14.5234 21.0938C14.5234 21.6331 14.9781 22.0703 15.5391 22.0703Z" fill="#333333"/>
<path d="M8.9375 12.0117C9.49841 12.0117 9.95312 11.5745 9.95312 11.0352C9.95312 10.4958 9.49841 10.0586 8.9375 10.0586C8.37659 10.0586 7.92188 10.4958 7.92188 11.0352C7.92188 11.5745 8.37659 12.0117 8.9375 12.0117Z" fill="#333333"/>
<path d="M17.0625 12.0117C17.6234 12.0117 18.0781 11.5745 18.0781 11.0352C18.0781 10.4958 17.6234 10.0586 17.0625 10.0586C16.5016 10.0586 16.0469 10.4958 16.0469 11.0352C16.0469 11.5745 16.5016 12.0117 17.0625 12.0117Z" fill="#333333"/>
</svg>
