<svg width="64" height="64" viewBox="0 0 64 64" fill="none" xmlns="http://www.w3.org/2000/svg">
<circle cx="32" cy="32" r="32" fill="url(#paint0_linear)"/>
<path d="M39.6172 34.75H34.3438V50.5H27.3125V34.75H21.6172V28.2109H27.3125V23.2891C27.3125 21.4141 27.6641 19.8203 28.3672 18.5078C29.0703 17.1953 30.0547 16.2109 31.3203 15.5547C32.6328 14.8516 34.1328 14.5 35.8203 14.5C36.5703 14.5 37.3672 14.5469 38.2109 14.6406C39.0547 14.6875 39.7109 14.7578 40.1797 14.8516L40.8828 14.9219V20.4766H38.0703C36.7578 20.4766 35.7969 20.8281 35.1875 21.5312C34.625 22.1875 34.3438 23.0078 34.3438 23.9922V28.2109H40.6016L39.6172 34.75Z" fill="white"/>
<defs>
<linearGradient id="paint0_linear" x1="32" y1="0" x2="32" y2="64" gradientUnits="userSpaceOnUse">
<stop stop-color="#39ACFF"/>
<stop offset="1" stop-color="#1D18FF"/>
</linearGradient>
</defs>
</svg>
