<svg width="18" height="19" viewBox="0 0 18 19" fill="none" xmlns="http://www.w3.org/2000/svg">
<path d="M17.332 1.12891L13.6758 0.285156C13.4883 0.238281 13.3008 0.261719 13.1133 0.355469C12.9258 0.449219 12.7969 0.578125 12.7266 0.742188L11.0391 4.67969C10.9688 4.86719 10.957 5.05469 11.0039 5.24219C11.0508 5.40625 11.1445 5.54688 11.2852 5.66406L13.3945 7.42188C12.7617 8.78125 11.9062 10 10.8281 11.0781C9.77344 12.1562 8.55469 13.0117 7.17188 13.6445L5.44922 11.5352C5.33203 11.3711 5.17969 11.2773 4.99219 11.2539C4.80469 11.207 4.62891 11.2188 4.46484 11.2891L0.527344 12.9766C0.339844 13.0469 0.199219 13.1758 0.105469 13.3633C0.0117187 13.5508 -0.0117188 13.7383 0.0351562 13.9258L0.878906 17.582C0.902344 17.793 0.996094 17.957 1.16016 18.0742C1.32422 18.1914 1.5 18.25 1.6875 18.25C4.64062 18.25 7.38281 17.5117 9.91406 16.0352C12.375 14.582 14.332 12.625 15.7852 10.1641C17.2617 7.63281 18 4.89062 18 1.9375C18 1.75 17.9414 1.57422 17.8242 1.41016C17.707 1.24609 17.543 1.15234 17.332 1.12891Z" fill="#1890FF"/>
</svg>
