<svg width="89" height="80" viewBox="0 0 89 80" fill="none" xmlns="http://www.w3.org/2000/svg">
<path d="M76.5315 80H67.6359C78.1073 79.5952 82.2628 71.9294 76.8619 62.6064L53.1615 21.7598L45.1682 7.97142C44.1017 6.07053 42.6881 4.38451 41 3C42.7687 4.38241 44.242 6.10276 45.3334 8.05996L53.2378 21.6839C53.633 21.4448 54.0964 21.3425 54.5561 21.3928C55.0158 21.4431 55.4459 21.6433 55.7794 21.9622C55.9737 22.1499 56.2063 22.2938 56.4613 22.3844C56.7163 22.475 56.9878 22.5101 57.2576 22.4873C57.5274 22.4645 57.7892 22.3844 58.0252 22.2523C58.2613 22.1203 58.4661 21.9394 58.6259 21.7219L61.1675 18.6226L86.647 62.5684C92.175 72.1697 87.6255 80 76.5315 80Z" fill="#BBBBBC"/>
<path d="M68.8923 79.8609C68.0781 79.9567 67.2587 80.0031 66.4387 79.9998H11.6537C1.12351 79.5956 -3.04255 71.9398 2.37589 62.6291L28.9825 17.1493L33.0463 21.1667C33.2449 21.3672 33.4835 21.5247 33.747 21.629C34.0105 21.7334 34.2931 21.7824 34.5768 21.7729C34.8605 21.7634 35.1391 21.6956 35.3948 21.5738C35.6506 21.452 35.8778 21.279 36.0622 21.0656L38.2986 18.5389C38.4723 18.3254 38.6921 18.1532 38.942 18.0348C39.192 17.9164 39.4655 17.855 39.7427 17.855C40.0198 17.855 40.2934 17.9164 40.5433 18.0348C40.7932 18.1532 41.0131 18.3254 41.1867 18.5389L46.4263 24.6661C46.6053 24.8822 46.8285 25.0585 47.0812 25.1834C47.334 25.3083 47.6105 25.3791 47.8928 25.391C48.1751 25.4029 48.4568 25.3558 48.7194 25.2526C48.982 25.1495 49.2196 24.9926 49.4166 24.7924L52.1897 22.051C52.3127 21.9298 52.45 21.8238 52.5987 21.7352L44.5605 7.96488C43.488 6.06649 42.0664 4.38269 40.3688 3C42.1475 4.38059 43.6291 6.09868 44.7266 8.05331L52.6754 21.6594L76.611 62.6291C81.7611 71.4471 78.3107 78.7997 68.8923 79.8609Z" fill="#DCE2E5"/>
<path d="M49.5 45C51.433 45 53 43.433 53 41.5C53 39.567 51.433 38 49.5 38C47.567 38 46 39.567 46 41.5C46 43.433 47.567 45 49.5 45Z" fill="#282828"/>
<path d="M28.5 45C30.433 45 32 43.433 32 41.5C32 39.567 30.433 38 28.5 38C26.567 38 25 39.567 25 41.5C25 43.433 26.567 45 28.5 45Z" fill="#282828"/>
<path d="M38.4937 62C36.2276 62.0007 34.0341 61.1687 32.3003 59.6507C30.5666 58.1327 29.4041 56.0264 29.018 53.7035C28.9855 53.4941 28.997 53.2798 29.0517 53.0754C29.1064 52.871 29.203 52.6813 29.3349 52.5195C29.4667 52.3576 29.6307 52.2274 29.8155 52.1377C30.0004 52.048 30.2017 52.001 30.4056 52H46.5944C46.7983 52.001 46.9996 52.048 47.1845 52.1377C47.3693 52.2274 47.5333 52.3576 47.6651 52.5195C47.797 52.6813 47.8936 52.871 47.9483 53.0754C48.003 53.2798 48.0145 53.4941 47.982 53.7035C47.5956 56.0286 46.4312 58.1366 44.6949 59.6549C42.9586 61.1731 40.762 62.0038 38.4937 62Z" fill="#FF4B33"/>
<path d="M53 21.3422C52.8552 21.4309 52.7215 21.5369 52.6017 21.6581L49.901 24.3996C49.7091 24.5998 49.4777 24.7566 49.222 24.8598C48.9662 24.963 48.6919 25.0101 48.417 24.9982C48.142 24.9863 47.8726 24.9155 47.6265 24.7906C47.3804 24.6657 47.163 24.4894 46.9886 24.2732L41.9481 18.1459C41.7789 17.9324 41.5648 17.7601 41.3214 17.6417C41.078 17.5234 40.8116 17.4619 40.5417 17.4619C40.2718 17.4619 40.0053 17.5234 39.7619 17.6417C39.5185 17.7601 39.3044 17.9324 39.1353 18.1459L36.9572 20.6726C36.7777 20.886 36.5563 21.0591 36.3073 21.1809C36.0582 21.3027 35.7869 21.3705 35.5106 21.38C35.2343 21.3895 34.9591 21.3405 34.7024 21.2361C34.4458 21.1317 34.2134 20.9743 34.02 20.7737L30 16.7436L35.1277 7.71044C36.3484 5.41193 38.1045 3.45146 40.243 2L40.7408 2.32848L41.0395 2.55588C42.6928 3.93863 44.0772 5.62248 45.1218 7.52094L53 21.3422Z" fill="white"/>
<path d="M61 18.0723L58.4775 21.2166C58.3188 21.4373 58.1155 21.6209 57.8812 21.7548C57.647 21.8888 57.3872 21.97 57.1194 21.9932C56.8517 22.0163 56.5821 21.9807 56.329 21.8888C56.0759 21.7969 55.8452 21.6508 55.6522 21.4605C55.3212 21.1369 54.8944 20.9338 54.4382 20.8828C53.982 20.8317 53.5219 20.9356 53.1297 21.1781L45.3099 7.35615C44.2267 5.3705 42.7644 3.62515 41.009 2.22265L40.7063 1.99164C40.4793 1.81197 40.2396 1.65796 40 1.50396C45.045 -1.70448 50.8721 0.22058 54.8829 7.27915L61 18.0723Z" fill="#EFEFEF"/>
</svg>
