<svg width="216" height="216" viewBox="0 0 216 216" fill="none" xmlns="http://www.w3.org/2000/svg">
<path fill-rule="evenodd" clip-rule="evenodd" d="M153.967 10.2424C153.322 22.3672 143.286 32 131 32C118.297 32 108 21.7025 108 9C108 5.81192 108.649 2.77534 109.821 0.0150452C109.215 0.0050354 108.608 0 108 0C75.5845 0 46.5045 14.281 26.7083 36.8945C28.7979 40.2831 30 44.2542 30 48.5C30 60.9264 19.7025 71 7 71C6.83502 71 6.67044 70.9983 6.50629 70.9949C2.29663 82.5378 0 95.0007 0 108C0 128.73 5.84064 148.096 15.9661 164.542C17.8729 162.955 20.3249 162 23 162C29.0751 162 34 166.925 34 173C34 176.718 32.1556 180.005 29.3319 181.996C49.0293 202.929 76.9882 216 108 216C117.176 216 126.086 214.856 134.593 212.702C132.32 209.187 131 204.997 131 200.5C131 188.074 141.074 178 153.5 178C163.277 178 171.597 184.236 174.701 192.947C188.484 182.109 199.565 167.989 206.765 151.765C202.664 147.762 200 141.296 200 134C200 122.106 207.08 112.416 215.927 112.013C215.975 110.681 216 109.344 216 108C216 64.792 190.627 27.5103 153.967 10.2424ZM80.5 198C85.7467 198 90 193.523 90 188C90 182.477 85.7467 178 80.5 178C75.2533 178 71 182.477 71 188C71 193.523 75.2533 198 80.5 198ZM34 111.5C34 116.194 30.1944 120 25.5 120C20.8056 120 17 116.194 17 111.5C17 106.806 20.8056 103 25.5 103C30.1944 103 34 106.806 34 111.5ZM82 33C82 39.0751 77.0751 44 71 44C64.9249 44 60 39.0751 60 33C60 26.9249 64.9249 22 71 22C77.0751 22 82 26.9249 82 33ZM163 64C167.971 64 172 59.7467 172 54.5C172 49.2533 167.971 45 163 45C158.029 45 154 49.2533 154 54.5C154 59.7467 158.029 64 163 64Z" fill="url(#paint0_linear)"/>
<g filter="url(#filter0_d)">
<path d="M57.8058 83.486C57.3458 86.3073 56.9318 88.316 56.5638 89.512C56.2264 90.708 56.0118 91.9347 55.9198 93.192C55.9198 95.1853 56.2724 96.6113 56.9778 97.47C57.1004 97.6847 57.4071 97.8993 57.8978 98.114C58.1738 98.114 58.4804 98.0833 58.8178 98.022L58.0818 97.148C57.5298 96.5347 57.7751 95.7987 58.8178 94.94C59.0938 94.7253 59.5844 94.664 60.2898 94.756C61.0258 94.8173 61.7618 95.2773 62.4978 96.136C62.4978 96.1973 62.5284 96.228 62.5898 96.228L63.4178 94.618C63.5404 94.5567 63.6631 94.158 63.7858 93.422C63.9391 92.6553 64.0924 92.0113 64.2458 91.49C64.2458 91.2447 64.2764 90.938 64.3378 90.57V90.11C64.3991 89.5273 64.3224 89.0673 64.1078 88.73C63.9544 87.2887 63.8931 85.9087 63.9238 84.59L63.8318 83.486C63.6784 83.3327 63.5711 82.4433 63.5098 80.818L63.0038 78.748C63.0038 78.5947 62.8198 77.7053 62.4518 76.08C62.3291 75.8653 62.0071 75.85 61.4858 76.034C60.9951 76.218 60.5504 76.5093 60.1518 76.908C59.8144 77.644 59.5998 78.1347 59.5078 78.38C59.4158 78.5947 59.2318 78.978 58.9558 79.53C58.6798 80.0513 58.4958 80.6953 58.4038 81.462C58.2198 82.2287 58.0204 82.9033 57.8058 83.486ZM68.2018 77.966C68.7538 81.922 68.9378 84.268 68.7538 85.004C68.6618 85.1267 68.6158 85.4333 68.6158 85.924L68.5698 86.43V87.856C68.5084 87.9173 68.4778 88.0707 68.4778 88.316L68.3858 89.328L68.2938 89.65L68.3858 89.788L68.3398 89.972C68.3398 90.0333 68.3091 90.156 68.2478 90.34C68.1864 90.524 68.1251 91.0453 68.0638 91.904L67.4658 94.48C67.4658 94.5413 67.3584 94.8633 67.1438 95.446C66.9598 95.998 66.8218 96.3507 66.7298 96.504C66.7298 96.7493 66.4538 97.1787 65.9018 97.792L64.7978 99.264C65.1044 99.6013 65.9938 100.429 67.4658 101.748C67.5578 101.871 67.8644 102.055 68.3858 102.3C69.7351 102.944 70.6398 103.312 71.0998 103.404C71.5904 103.496 71.8971 103.634 72.0198 103.818C72.1424 104.002 72.1884 104.155 72.1578 104.278C72.1271 104.431 72.0351 104.646 71.8818 104.922C71.9124 105.198 71.7438 105.505 71.3758 105.842C71.0384 106.21 70.7011 106.394 70.3638 106.394C69.3824 106.302 68.5391 106.133 67.8338 105.888C67.1284 105.643 66.7298 105.459 66.6378 105.336C65.3191 104.692 63.5711 103.389 61.3938 101.426C60.0138 101.947 58.8791 102.085 57.9898 101.84C57.8671 101.871 57.4838 101.809 56.8398 101.656C56.7478 101.656 55.8738 101.441 54.2178 101.012L53.2518 100.598C53.0064 100.537 52.6691 100.337 52.2398 100C51.9944 99.724 51.6724 99.402 51.2738 99.034C50.8751 98.6353 50.6144 98.2827 50.4918 97.976C50.2464 97.3013 50.1544 96.4887 50.2158 95.538C50.3078 94.5873 50.3538 94.02 50.3538 93.836C50.3538 93.6213 50.3384 93.3147 50.3078 92.916C50.2771 92.4867 50.2924 92.1647 50.3538 91.95C50.4151 91.766 50.4151 91.2293 50.3538 90.34C50.3844 90.2787 50.3998 89.9567 50.3998 89.374C50.6451 85.8473 50.7984 83.9767 50.8598 83.762C51.2278 82.5047 51.4731 81.5847 51.5958 81.002C51.5958 80.4807 51.7951 79.6833 52.1938 78.61C52.3471 77.9967 52.8684 76.8467 53.7578 75.16C53.9111 75.0987 54.1104 74.8227 54.3558 74.332C54.5091 74.1787 54.6931 73.872 54.9078 73.412L55.6438 72.584C55.6744 72.5227 55.8891 72.4 56.2878 72.216C56.7784 71.9707 57.2078 71.802 57.5758 71.71C57.9744 71.618 58.8024 71.572 60.0598 71.572C60.5198 71.6333 60.9798 71.572 61.4398 71.388H62.9118C63.5864 71.4493 64.4911 71.6793 65.6258 72.078C66.1164 72.4153 66.4998 72.7373 66.7758 73.044C67.0518 73.3507 67.2358 73.7647 67.3278 74.286C67.3278 74.7153 67.5884 75.6507 68.1098 77.092C68.1711 77.276 68.2018 77.5673 68.2018 77.966ZM87.6299 87.258L87.6759 88.132C87.6759 88.224 87.7679 89.19 87.9519 91.03V91.582C87.9519 92.318 88.0746 93.422 88.3199 94.894C88.3199 95.538 88.6419 96.6573 89.2859 98.252C89.4393 98.344 89.5466 98.5587 89.6079 98.896L89.5619 99.356C89.6233 99.5093 89.5466 99.678 89.3319 99.862C89.3319 100.077 89.0406 100.184 88.4579 100.184C87.8753 100.184 87.5073 100.215 87.3539 100.276C87.2006 100.337 86.9553 100.307 86.6179 100.184C86.4953 100.245 86.1273 100.123 85.5139 99.816C85.2379 99.7547 85.0233 99.4787 84.8699 98.988L84.5019 98.114C84.5019 97.562 84.3486 97.0713 84.0419 96.642C84.0419 96.4887 83.9653 96.2127 83.8119 95.814C83.6893 95.4153 83.5973 95.2007 83.5359 95.17C83.2293 96.3967 82.8459 97.3473 82.3859 98.022C82.3859 98.1753 82.2939 98.3593 82.1099 98.574L81.6499 99.448C81.6499 99.5093 81.5119 99.678 81.2359 99.954C81.0519 100.353 80.6379 100.552 79.9939 100.552C79.4113 100.552 78.7059 100.399 77.8779 100.092C77.6633 100.061 77.2339 99.9233 76.5899 99.678C76.4059 99.7087 76.1146 99.6627 75.7159 99.54C75.3479 99.3867 75.1333 99.31 75.0719 99.31C74.9799 99.218 74.7653 99.0647 74.4279 98.85L73.6459 98.022C73.6153 97.9913 73.5539 97.8533 73.4619 97.608C73.4006 97.332 73.3853 97.148 73.4159 97.056C73.4466 96.9333 73.4466 96.7647 73.4159 96.55C73.3853 96.3353 73.4006 96.1207 73.4619 95.906C73.4619 95.2927 73.5233 94.618 73.6459 93.882C73.6153 93.79 73.5999 93.6827 73.5999 93.56C73.5999 93.4373 73.6613 93.2073 73.7839 92.87C73.7533 92.7167 73.7379 92.6093 73.7379 92.548L73.9679 90.754C73.9679 90.3247 73.9833 90.018 74.0139 89.834V89.144C74.0446 89.0213 74.0599 88.8527 74.0599 88.638L74.2899 86.43C74.2899 86.0927 74.3053 85.878 74.3359 85.786V85.326C74.3973 85.2647 74.4279 85.0193 74.4279 84.59L74.8419 83.302L75.1639 82.75C75.1946 82.6273 75.3633 82.4893 75.6699 82.336C76.1606 82.0293 76.8659 81.876 77.7859 81.876C78.1539 81.9373 78.5526 82.0907 78.9819 82.336C79.0739 82.3053 79.2886 82.3667 79.6259 82.52C80.2393 82.796 80.2699 83.578 79.7179 84.866C79.5953 85.694 79.5339 86.1233 79.5339 86.154C79.4113 86.3993 79.3499 86.5987 79.3499 86.752C79.1659 87.7333 79.0739 88.2547 79.0739 88.316C79.1966 88.1933 79.1506 88.3773 78.9359 88.868L78.7519 90.57C78.5373 91.306 78.4453 92.1187 78.4759 93.008L78.2919 93.606C78.3226 93.7593 78.3073 94.2347 78.2459 95.032C78.3073 95.124 78.3379 95.2313 78.3379 95.354L78.3839 95.722C78.3533 95.814 78.3686 95.906 78.4299 95.998C78.4913 96.0593 78.6599 96.09 78.9359 96.09C79.2426 96.0593 79.5033 95.9827 79.7179 95.86C80.1473 95.3387 80.4386 94.802 80.5919 94.25C80.7453 93.6673 80.8219 93.33 80.8219 93.238C81.3433 91.9193 81.6653 91.1527 81.7879 90.938C81.9413 90.11 82.2019 89.1593 82.5699 88.086C82.5086 87.9327 82.5086 87.626 82.5699 87.166L83.1679 84.728C83.4439 84.268 83.5819 83.992 83.5819 83.9C83.5819 83.7773 83.7659 83.348 84.1339 82.612C84.1339 82.4893 84.2259 82.244 84.4099 81.876C84.6246 81.5387 85.0079 81.2167 85.5599 80.91H85.6979C86.3726 80.8487 86.9553 80.9407 87.4459 81.186C87.5073 81.3087 87.5379 81.5233 87.5379 81.83C87.5993 82.1367 87.6606 82.6887 87.7219 83.486V83.946L87.5379 84.958C87.7833 85.7247 87.8139 86.4913 87.6299 87.258ZM102.693 87.994C102.723 87.902 102.785 87.3653 102.877 86.384C102.815 86.292 102.739 85.9547 102.647 85.372C102.401 84.8813 102.079 84.5133 101.681 84.268C101.19 84.0533 100.899 83.946 100.807 83.946C100.531 84.038 100.331 84.1453 100.209 84.268C100.117 84.36 99.8561 84.7893 99.4268 85.556C99.0281 86.3227 98.6908 87.5953 98.4148 89.374C98.1695 91.1527 98.0468 92.4407 98.0468 93.238C98.0468 94.0353 98.0775 95.0167 98.1388 96.182C98.2001 97.3167 98.4455 97.8533 98.8748 97.792C99.2735 97.7307 99.8255 96.6267 100.531 94.48C100.561 94.3267 100.669 94.0507 100.853 93.652L102.693 87.994ZM108.075 86.108C108.075 87.7333 108.243 89.2207 108.581 90.57C108.734 91.9193 109.01 93.3607 109.409 94.894C109.501 95.5073 109.531 95.814 109.501 95.814C110.267 97.5007 110.697 98.5127 110.789 98.85C110.881 99.1567 110.865 99.4173 110.743 99.632V99.586C110.651 99.862 110.359 100.107 109.869 100.322C109.409 100.567 108.995 100.721 108.627 100.782C107.461 101.15 106.771 100.705 106.557 99.448C106.434 99.356 106.25 99.172 106.005 98.896C105.79 98.5893 105.667 98.344 105.637 98.16C105.606 97.9453 105.499 97.746 105.315 97.562C105.253 97.4087 105.115 97.2093 104.901 96.964C104.686 96.7187 104.563 96.4733 104.533 96.228L104.395 94.986L104.303 94.94C103.812 95.952 103.49 96.6573 103.337 97.056C102.969 98.0987 102.325 99.2947 101.405 100.644C100.362 101.809 99.0895 102.147 97.5868 101.656C97.0348 101.625 96.5901 101.457 96.2528 101.15C95.9461 100.843 95.7315 100.675 95.6088 100.644C95.4248 100.583 95.1641 100.353 94.8268 99.954C94.2748 99.218 93.9375 98.1293 93.8148 96.688V95.492C93.9068 95.3387 93.9068 94.6027 93.8148 93.284V93.008C93.6308 92.088 93.5388 91.536 93.5388 91.352C93.5388 91.168 93.5695 90.9227 93.6308 90.616C93.6921 90.3093 93.7075 90.1253 93.6768 90.064C93.6461 89.972 93.6308 89.834 93.6308 89.65V88.96L93.8608 86.476C94.1981 85.4027 94.5661 84.4367 94.9648 83.578C95.0875 83.0567 95.3175 82.6427 95.6548 82.336C96.4215 81.508 96.8355 81.0327 96.8968 80.91C97.1115 80.45 97.9088 80.082 99.2888 79.806L100.071 79.852C100.377 79.852 100.653 79.898 100.899 79.99C101.144 80.0513 101.313 80.082 101.405 80.082C101.834 80.2967 102.187 80.404 102.463 80.404C102.739 80.404 103.199 80.6187 103.843 81.048C104.027 81.0787 104.487 81.3393 105.223 81.83C106.02 82.3513 106.48 82.6427 106.603 82.704L107.799 83.118C108.136 83.394 108.305 83.5473 108.305 83.578C108.305 83.6087 108.228 84.452 108.075 86.108ZM115.261 75.39L115.583 72.676L115.629 71.25C115.629 70.8513 115.706 70.5447 115.859 70.33L116.319 69.686C117.147 69.042 117.684 68.674 117.929 68.582C118.174 68.49 118.527 68.5053 118.987 68.628C119.478 68.72 119.769 68.812 119.861 68.904L120.367 69.318C120.643 69.4713 120.781 69.7167 120.781 70.054C120.934 70.238 120.98 70.376 120.919 70.468C120.735 70.6827 120.428 72.492 119.999 75.896L119.631 82.152L119.401 83.394C119.401 83.7927 119.416 84.0227 119.447 84.084V84.912C119.386 85.5253 119.324 85.9087 119.263 86.062C119.263 86.2153 119.232 86.384 119.171 86.568C119.232 86.6293 119.263 86.8747 119.263 87.304C119.263 87.7027 119.217 87.948 119.125 88.04C119.064 88.5307 119.033 89.006 119.033 89.466C119.033 89.8953 119.064 90.3553 119.125 90.846C119.217 91.306 119.248 91.766 119.217 92.226L119.401 93.974V94.664C119.462 95.216 119.493 95.6607 119.493 95.998L119.723 98.39L119.907 99.632C119.999 100.153 119.953 100.659 119.769 101.15C119.616 101.641 119.37 101.947 119.033 102.07C118.082 102.469 117.04 102.208 115.905 101.288H115.537C115.322 101.043 115.154 100.705 115.031 100.276C114.786 100.153 114.678 99.9387 114.709 99.632C114.74 99.3253 114.678 99.0493 114.525 98.804C114.372 98.5587 114.295 98.344 114.295 98.16C114.295 97.7613 114.264 97.4087 114.203 97.102L114.249 96.734C114.157 96.642 114.111 96.504 114.111 96.32L114.019 95.492V95.124C114.019 94.8787 114.004 94.71 113.973 94.618C113.973 94.526 114.019 94.3727 114.111 94.158C114.019 94.0353 114.004 93.5907 114.065 92.824C114.249 90.4627 114.341 88.8373 114.341 87.948L114.387 86.844V85.51C114.418 84.774 114.433 83.8387 114.433 82.704C114.464 81.5693 114.525 80.956 114.617 80.864L114.571 80.45C114.571 79.714 114.678 78.7173 114.893 77.46C115.138 76.172 115.261 75.482 115.261 75.39ZM130.866 73.964H131.004C132.077 74.0253 132.767 74.3473 133.074 74.93C133.411 75.482 133.534 76.0187 133.442 76.54C133.38 77.0613 132.966 77.7053 132.2 78.472C131.464 79.2387 130.789 79.6067 130.176 79.576C129.992 79.576 129.624 79.484 129.072 79.3C128.55 79.116 128.274 79.0087 128.244 78.978C128.213 78.8553 128.121 78.7633 127.968 78.702C127.17 78.3953 126.726 77.6133 126.634 76.356C126.634 76.2333 126.726 76.1413 126.91 76.08C126.787 76.08 126.772 75.896 126.864 75.528C127.078 74.8533 127.554 74.4087 128.29 74.194C129.24 74.01 130.099 73.9333 130.866 73.964ZM130.774 85.602L129.992 93.284C129.992 93.468 129.992 93.652 129.992 93.836C129.992 93.9893 130.007 94.1273 130.038 94.25C130.007 94.3727 129.992 94.526 129.992 94.71V98.022C130.114 99.0647 130.114 99.678 129.992 99.862C129.808 99.9233 129.593 100.015 129.348 100.138C129.102 100.291 128.627 100.322 127.922 100.23C127.247 100.169 126.756 100.061 126.45 99.908L125.898 99.77C125.591 99.77 125.392 99.632 125.3 99.356C124.901 99.1107 124.686 98.7887 124.656 98.39C124.564 98.2367 124.671 98.022 124.978 97.746C124.947 97.5927 124.886 97.378 124.794 97.102C124.702 96.7953 124.671 96.5193 124.702 96.274C124.794 96.1207 124.748 95.8907 124.564 95.584C124.564 95.2467 124.61 94.8633 124.702 94.434C124.824 94.3113 124.855 93.8667 124.794 93.1C125.008 92.7933 125.116 92.364 125.116 91.812C124.993 91.3213 125.039 90.8307 125.254 90.34C125.468 89.8493 125.591 89.3587 125.622 88.868C125.683 88.1013 125.821 87.35 126.036 86.614C126.036 86.3073 126.174 85.8167 126.45 85.142C126.756 84.4673 126.956 84.0687 127.048 83.946L127.784 83.21L128.612 82.888H128.658C129.026 82.7653 129.394 82.7807 129.762 82.934C130.651 83.2713 131.188 83.532 131.372 83.716C131.249 83.8387 131.172 84.0227 131.142 84.268C131.111 84.5133 131.08 84.728 131.05 84.912C130.927 85.0653 130.835 85.2953 130.774 85.602ZM143.857 72.354C143.796 73.1207 143.765 73.688 143.765 74.056C143.765 74.3933 143.75 74.7 143.719 74.976V76.172L143.673 76.494V77.46C143.673 77.736 143.658 78.012 143.627 78.288L145.237 77.966C145.36 77.966 145.804 77.8893 146.571 77.736C147.338 77.5827 148.028 77.5213 148.641 77.552C149.285 77.552 149.714 77.6747 149.929 77.92C150.174 78.1653 150.297 78.518 150.297 78.978C150.358 79.346 150.251 79.6987 149.975 80.036L149.791 80.312C149.546 80.7107 149.193 80.9713 148.733 81.094L147.123 81.324L145.053 81.83L143.811 82.29C143.842 83.0567 143.888 83.9 143.949 84.82C144.041 85.74 144.087 86.384 144.087 86.752L144.225 88.454C144.624 91.1527 145.145 93.9127 145.789 96.734C145.973 97.01 146.172 97.6387 146.387 98.62L146.755 99.586C146.878 100.629 146.234 101.15 144.823 101.15C144.578 101.15 143.964 101.089 142.983 100.966C142.707 100.935 142.308 100.659 141.787 100.138C141.787 100.077 141.618 99.8773 141.281 99.54L140.407 97.424C140.346 97.332 140.269 97.0407 140.177 96.55C139.84 96.2127 139.564 95.446 139.349 94.25C139.349 94.1887 139.318 94.0353 139.257 93.79V93.146C139.042 92.9313 138.889 92.3333 138.797 91.352C138.705 90.3707 138.598 89.4507 138.475 88.592C138.475 87.396 138.383 86.246 138.199 85.142L138.107 84.13V83.716C138.138 83.4093 138.138 83.256 138.107 83.256H137.555C137.095 83.3173 136.712 83.3173 136.405 83.256C135.056 83.256 134.12 82.8727 133.599 82.106C133.231 81.278 133.216 80.7413 133.553 80.496C133.89 80.2507 134.718 80.0053 136.037 79.76C136.62 79.76 137.371 79.5607 138.291 79.162C138.291 78.3953 138.337 77.966 138.429 77.874C138.521 77.1687 138.613 76.724 138.705 76.54C138.828 76.3253 138.904 76.1107 138.935 75.896C138.966 75.16 139.226 74.0713 139.717 72.63C139.901 71.9247 140.07 71.4493 140.223 71.204C140.622 70.6213 141.45 70.4373 142.707 70.652C143.228 70.744 143.612 70.9433 143.857 71.25C143.949 71.2193 143.949 71.5873 143.857 72.354ZM167.784 88.73L167.6 89.65L167.508 90.754C167.508 90.9993 167.462 91.306 167.37 91.674C167.37 92.9313 167.278 93.882 167.094 94.526C167.094 95.3233 166.971 96.274 166.726 97.378C166.634 98.298 166.603 98.942 166.634 99.31C166.48 99.6167 166.404 99.8927 166.404 100.138C166.404 100.261 166.358 100.583 166.266 101.104C166.174 101.625 166.036 101.978 165.852 102.162C165.852 102.499 165.79 102.791 165.668 103.036C165.484 103.373 165.346 103.711 165.254 104.048C165.192 104.416 165.131 104.631 165.07 104.692C165.039 104.784 165.024 104.845 165.024 104.876L164.242 106.302C164.242 106.333 164.088 106.532 163.782 106.9C163.72 107.115 163.521 107.437 163.184 107.866C163.184 107.989 162.662 108.372 161.62 109.016C161.282 109.292 160.868 109.491 160.378 109.614L159.964 109.798C159.504 110.074 158.936 110.227 158.262 110.258C156.912 110.442 155.916 110.427 155.272 110.212L154.076 109.798V109.844C153.585 109.629 153.156 109.338 152.788 108.97C152.113 108.633 151.668 108.28 151.454 107.912C151.239 107.575 151.04 106.992 150.856 106.164C150.794 105.857 150.871 105.459 151.086 104.968C151.331 104.508 151.653 104.293 152.052 104.324C152.144 104.324 152.527 104.508 153.202 104.876C153.263 104.968 153.585 105.259 154.168 105.75C154.842 106.547 155.548 106.946 156.284 106.946C156.56 106.946 156.759 106.915 156.882 106.854C157.004 106.823 157.357 106.762 157.94 106.67C157.848 106.578 157.878 106.471 158.032 106.348C158.216 106.256 158.354 106.195 158.446 106.164C158.66 106.103 158.844 105.965 158.998 105.75L159.596 105.29C159.657 105.198 159.872 104.983 160.24 104.646L160.7 104.002C160.7 103.787 160.868 103.435 161.206 102.944C161.175 102.852 161.252 102.653 161.436 102.346C161.436 102.223 161.466 102.039 161.528 101.794L161.942 99.954L161.896 99.678C162.049 99.31 162.126 98.9113 162.126 98.482L162.448 97.194L162.264 97.148L161.39 98.574C161.39 98.6047 161.344 98.6813 161.252 98.804C161.16 98.896 161.037 99.0493 160.884 99.264L160.01 100.46L159.55 100.736C158.752 101.411 157.863 101.656 156.882 101.472C156.452 101.227 156.054 101.073 155.686 101.012C155.348 100.981 155.011 100.797 154.674 100.46C154.275 100.307 153.892 100.046 153.524 99.678C153.401 99.4327 153.34 99.2487 153.34 99.126C153.34 98.9727 153.263 98.7273 153.11 98.39C152.803 96.7953 152.65 95.4153 152.65 94.25C152.619 94.158 152.619 93.8667 152.65 93.376C152.711 92.8547 152.742 92.5173 152.742 92.364C152.742 92.18 152.772 91.95 152.834 91.674L153.018 90.248C153.202 90.0027 153.34 89.5427 153.432 88.868C153.585 88.1013 153.922 87.1353 154.444 85.97L154.674 85.372L155.088 84.682C155.088 84.3753 155.21 83.9613 155.456 83.44C155.701 82.9187 155.854 82.612 155.916 82.52C155.977 82.428 156.084 82.3053 156.238 82.152C156.391 81.9987 156.544 81.83 156.698 81.646C157.096 81.278 157.618 81.1553 158.262 81.278C158.906 81.4007 159.381 81.5847 159.688 81.83C160.025 82.0447 160.117 82.5047 159.964 83.21C159.657 84.6513 159.504 85.3873 159.504 85.418L159.182 86.292C159.182 86.6907 159.12 87.0127 158.998 87.258C158.998 87.3807 158.875 88.1167 158.63 89.466C158.415 89.8647 158.308 90.156 158.308 90.34C158.308 90.5853 158.231 90.938 158.078 91.398C157.924 91.8273 157.817 92.1647 157.756 92.41C157.664 92.9927 157.602 93.4987 157.572 93.928C157.541 94.3573 157.418 94.7713 157.204 95.17C157.265 95.17 157.265 95.354 157.204 95.722V96.182C157.173 96.55 157.434 96.7647 157.986 96.826C158.538 96.8873 159.074 96.4733 159.596 95.584C160.332 94.0507 160.746 93.192 160.838 93.008L161.206 92.318L161.344 91.904C161.558 91.7507 161.742 91.5667 161.896 91.352L162.172 90.662C162.172 90.57 162.785 88.684 164.012 85.004L164.288 83.808C164.288 83.1027 164.426 82.566 164.702 82.198C165.008 81.83 165.3 81.6307 165.576 81.6C166.036 81.6 166.756 81.8147 167.738 82.244C168.106 82.244 168.336 82.658 168.428 83.486C168.428 84.038 168.305 84.8047 168.06 85.786C167.968 86.3687 167.922 86.8747 167.922 87.304C167.83 87.672 167.784 88.1473 167.784 88.73ZM64.5942 112.848C65.0235 112.664 65.9129 112.603 67.2622 112.664C68.6115 112.695 69.5775 112.817 70.1602 113.032L71.3102 113.4C72.2609 114.044 72.7975 114.366 72.9202 114.366C74.1775 115.347 74.8982 116.635 75.0822 118.23C75.2662 118.905 75.2969 119.518 75.1742 120.07C75.1742 120.254 75.1129 120.653 74.9902 121.266L74.5302 122.324L73.9782 123.106C73.7942 123.137 73.6869 123.152 73.6562 123.152C72.5215 123.336 71.6475 123.367 71.0342 123.244C70.4209 123.091 69.8842 122.753 69.4242 122.232C69.3322 122.048 69.2862 121.879 69.2862 121.726C69.3169 121.573 69.3629 121.435 69.4242 121.312L69.6542 120.576C70.0529 119.595 70.0222 118.767 69.5622 118.092C69.5622 118 69.4089 117.831 69.1022 117.586C68.7955 117.341 68.5502 117.157 68.3662 117.034C68.2129 116.911 67.9215 116.896 67.4922 116.988C66.7562 117.295 66.1275 118.23 65.6062 119.794C64.9929 120.591 64.5635 121.634 64.3182 122.922C63.9502 125.222 63.7662 126.525 63.7662 126.832L63.7202 127.844V128.258C63.6589 128.319 63.6895 129.653 63.8122 132.26C63.8429 132.413 63.9042 132.628 63.9962 132.904C64.0882 133.241 64.2262 133.793 64.4102 134.56L65.0082 135.572C65.1615 135.664 65.3609 135.94 65.6062 136.4C65.7595 136.4 65.8822 136.507 65.9742 136.722C66.1889 136.937 66.2809 137.059 66.2502 137.09C66.4035 137.121 66.6335 137.213 66.9402 137.366C67.7682 137.795 68.4889 137.703 69.1022 137.09C69.3169 136.875 69.5775 136.584 69.8842 136.216C70.2215 135.817 70.4669 135.511 70.6202 135.296C70.8042 135.051 71.0802 134.821 71.4482 134.606C72.4602 133.839 73.3342 133.87 74.0702 134.698C74.2235 134.943 74.2389 135.541 74.1162 136.492C74.0242 137.412 73.5949 138.378 72.8282 139.39C72.7669 139.574 72.5675 139.881 72.2302 140.31C71.8929 140.709 71.5402 141.031 71.1722 141.276C71.1109 141.491 69.9455 141.644 67.6762 141.736C67.5535 141.736 67.3082 141.705 66.9402 141.644C66.6029 141.736 66.1429 141.69 65.5602 141.506C65.0082 141.322 64.7015 141.23 64.6402 141.23L64.0422 141.092C63.7969 141.092 63.5515 141.015 63.3062 140.862C63.0609 140.709 62.6469 140.448 62.0642 140.08C61.5122 139.681 61.0829 139.359 60.7762 139.114C59.8562 138.378 59.1969 137.535 58.7982 136.584C58.6755 136.369 58.5989 136.078 58.5682 135.71C58.5375 135.311 58.4762 135.02 58.3842 134.836C58.1389 134.591 58.0162 134.192 58.0162 133.64C58.0469 133.088 58.0162 132.413 57.9242 131.616C57.9242 131.248 57.9395 131.033 57.9702 130.972C57.8169 130.819 57.7555 130.558 57.7862 130.19C57.8169 129.791 57.8322 129.255 57.8322 128.58C57.9242 128.396 57.9549 127.859 57.9242 126.97C57.9242 126.05 57.9549 125.36 58.0162 124.9C57.8935 124.624 57.8782 124.225 57.9702 123.704L58.0162 122.324C58.0469 121.772 58.1849 121.189 58.4302 120.576C58.4609 120.3 58.5222 119.978 58.6142 119.61C58.7062 119.211 59.1049 118.429 59.8102 117.264C59.8102 117.019 60.0402 116.712 60.5002 116.344C60.5002 116.221 60.6229 116.037 60.8682 115.792C61.1135 115.547 61.3895 115.24 61.6962 114.872C62.1255 114.351 62.6009 113.967 63.1222 113.722C63.6435 113.477 64.1342 113.185 64.5942 112.848ZM84.0227 123.106L83.5167 129.362L83.7927 128.718C83.9154 128.442 84.3601 127.798 85.1267 126.786C85.1267 126.694 85.6021 125.881 86.5527 124.348L87.3347 123.428L87.7487 122.784C88.3314 122.324 88.8221 122.094 89.2207 122.094C90.0487 121.971 90.9381 122.217 91.8887 122.83C92.1034 122.861 92.3794 123.091 92.7167 123.52C93.2381 123.919 93.4681 124.486 93.4067 125.222C93.4067 125.283 93.3914 125.375 93.3607 125.498C92.7781 130.282 92.4714 133.64 92.4407 135.572C92.4101 137.473 92.5634 139.068 92.9007 140.356C93.1461 141.429 92.7474 142.181 91.7047 142.61C91.4287 142.794 90.9994 142.825 90.4167 142.702C89.8954 142.702 89.4967 142.625 89.2207 142.472C88.9754 142.349 88.7147 142.043 88.4387 141.552L88.2087 140.632C88.0861 140.387 88.0247 140.049 88.0247 139.62L87.8407 138.286C87.8714 138.225 87.8867 137.826 87.8867 137.09L87.9327 135.894C87.8407 135.465 87.8561 134.621 87.9787 133.364L88.0707 131.386V130.236C88.1014 130.144 88.0094 129.929 87.7947 129.592C86.9974 130.205 86.1081 132.26 85.1267 135.756L83.9307 139.436C83.3787 141.399 82.7807 142.457 82.1367 142.61L81.6307 142.702C81.2014 142.702 80.6187 142.579 79.8827 142.334C79.3001 141.69 79.0087 141.046 79.0087 140.402C79.0701 140.279 79.0854 140.141 79.0547 139.988C78.9627 139.589 78.9934 139.037 79.1467 138.332C79.1161 138.24 79.1007 138.117 79.1007 137.964L79.1467 137.274C79.0854 137.121 79.0241 136.691 78.9627 135.986C78.9014 135.25 78.9014 134.698 78.9627 134.33C78.9014 134.207 78.9934 133.793 79.2387 133.088C78.9934 132.72 78.8554 132.306 78.8247 131.846C78.7021 130.589 78.6561 129.653 78.6867 129.04C78.7481 128.396 78.7787 127.798 78.7787 127.246C78.7174 126.694 78.7021 126.035 78.7327 125.268L79.0547 121.542L79.3767 118.874C79.3767 118.659 79.3001 118.337 79.1467 117.908C79.0241 117.448 78.9934 116.911 79.0547 116.298C79.1161 115.685 79.1774 115.301 79.2387 115.148C79.3307 114.964 79.4534 114.504 79.6067 113.768C79.6067 113.155 79.6681 112.695 79.7907 112.388L80.0667 111.56C80.0974 111.345 80.4961 110.993 81.2627 110.502H81.7687C82.9647 110.594 83.8387 110.793 84.3907 111.1C84.6361 111.253 84.6974 111.79 84.5747 112.71C84.5134 113.998 84.4674 114.795 84.4367 115.102C84.4061 115.409 84.3294 116.743 84.2067 119.104C84.0841 121.465 84.0227 122.799 84.0227 123.106ZM107.335 126.28C107.457 125.82 107.442 125.237 107.289 124.532C107.074 124.348 106.783 124.256 106.415 124.256C105.955 124.256 105.541 124.685 105.173 125.544C104.682 126.28 104.314 127.093 104.069 127.982H104.023C103.685 129.27 103.517 129.96 103.517 130.052C104.007 130.175 104.406 130.236 104.713 130.236C105.019 130.205 105.372 130.037 105.771 129.73C106.476 129.055 106.997 127.905 107.335 126.28ZM107.197 132.904L105.495 133.042C104.544 133.042 103.793 132.95 103.241 132.766L103.379 133.64C103.471 136.185 104.176 137.857 105.495 138.654C105.863 138.807 106.169 138.884 106.415 138.884C106.66 138.884 106.982 138.761 107.381 138.516C107.503 138.393 107.611 138.225 107.703 138.01C107.733 137.734 107.887 137.611 108.163 137.642C109.42 136.047 110.371 135.419 111.015 135.756C111.659 136.185 111.981 136.523 111.981 136.768C111.981 136.891 111.904 137.029 111.751 137.182V137.458C111.751 137.765 111.551 138.317 111.153 139.114C110.785 139.911 110.386 140.586 109.957 141.138C109.742 141.598 109.466 141.92 109.129 142.104C108.147 142.717 107.105 142.963 106.001 142.84C105.755 142.809 105.587 142.748 105.495 142.656C105.249 142.595 105.065 142.579 104.943 142.61L104.575 142.564C104.299 142.564 104.069 142.503 103.885 142.38C103.578 142.196 103.363 142.104 103.241 142.104C102.443 141.797 101.953 141.567 101.769 141.414C101.615 141.261 101.477 141.153 101.355 141.092C101.232 141.031 100.941 140.709 100.481 140.126C100.082 139.789 99.852 139.574 99.7907 139.482C99.6067 139.206 99.438 139.007 99.2847 138.884C99.162 138.761 99.0853 138.485 99.0547 138.056C98.932 137.903 98.8707 137.703 98.8707 137.458L98.6867 137.09C98.6867 136.875 98.5947 136.707 98.4107 136.584C98.2267 136.4 98.1347 136.17 98.1347 135.894V135.526C98.012 135.465 97.9813 135.281 98.0427 134.974V133.778L97.9967 133.364V133.042C97.966 132.919 97.9967 132.659 98.0887 132.26L98.0427 131.846C98.0733 131.815 98.1193 131.57 98.1807 131.11C98.3033 130.466 98.4413 130.067 98.5947 129.914V129.5C98.6253 129.408 98.6407 129.285 98.6407 129.132C98.6407 128.979 98.6713 128.81 98.7327 128.626C98.8247 128.442 99.07 127.752 99.4687 126.556L100.205 124.946C100.419 124.486 100.757 123.98 101.217 123.428C101.247 123.275 101.37 122.999 101.585 122.6L102.183 122.048C102.367 121.772 102.643 121.573 103.011 121.45C103.44 121.235 103.762 121.128 103.977 121.128L105.265 120.944C105.418 120.975 105.525 120.99 105.587 120.99H106.185C106.859 121.051 107.411 121.189 107.841 121.404C108.761 121.68 109.435 122.033 109.865 122.462C110.815 123.535 111.291 124.563 111.291 125.544C111.291 126.525 111.137 127.369 110.831 128.074C110.064 129.822 109.512 130.926 109.175 131.386C108.623 132.398 107.963 132.904 107.197 132.904ZM123.935 124.118C123.874 123.965 123.659 123.903 123.291 123.934C122.954 123.965 122.693 124.149 122.509 124.486C121.252 126.479 120.577 128.611 120.485 130.88C121.528 131.125 122.417 130.665 123.153 129.5C124.104 126.495 124.365 124.701 123.935 124.118ZM120.347 142.38L119.887 142.288L119.243 141.644C119.059 141.644 118.921 141.567 118.829 141.414C118.492 141.015 117.879 140.218 116.989 139.022L116.299 136.492C116.299 136.001 116.207 135.572 116.023 135.204C115.717 133.824 115.533 133.042 115.471 132.858C115.41 132.643 115.364 132.076 115.333 131.156C115.333 130.236 115.379 129.561 115.471 129.132C115.563 128.549 116.131 127.108 117.173 124.808C117.449 124.532 117.618 124.164 117.679 123.704L118.415 122.646C119.09 121.849 119.811 121.266 120.577 120.898C120.577 120.837 121.099 120.683 122.141 120.438C122.356 120.407 122.847 120.484 123.613 120.668C125.453 121.097 126.603 121.634 127.063 122.278L127.201 122.508C127.784 123.336 128.121 124.609 128.213 126.326C128.121 127.093 128.045 127.737 127.983 128.258C127.922 128.779 127.585 129.73 126.971 131.11C126.511 131.969 126.067 132.659 125.637 133.18C124.963 133.671 124.503 133.916 124.257 133.916C124.135 133.977 123.874 134.008 123.475 134.008H122.417C122.325 133.977 122.126 133.962 121.819 133.962C121.513 133.962 121.068 133.885 120.485 133.732C120.485 134.407 120.669 135.373 121.037 136.63C121.436 137.857 121.758 138.608 122.003 138.884C122.647 139.375 123.153 139.697 123.521 139.85C123.889 140.003 124.38 140.034 124.993 139.942C125.607 139.819 126.051 139.605 126.327 139.298L127.523 137.826C128.29 136.783 129.072 136.691 129.869 137.55C130.237 137.949 130.375 138.347 130.283 138.746C130.222 139.114 129.915 139.865 129.363 141C128.903 141.736 128.413 142.349 127.891 142.84C126.941 143.331 126.373 143.576 126.189 143.576C125.913 143.607 125.484 143.561 124.901 143.438C124.595 143.591 124.073 143.576 123.337 143.392C123.337 143.331 123.245 143.285 123.061 143.254C122.908 143.254 122.693 143.208 122.417 143.116L122.509 143.07C122.448 143.07 122.264 143.07 121.957 143.07L120.669 142.38H120.347ZM132.858 127.89C132.828 127.522 132.843 126.817 132.904 125.774L133.226 124.21L134.146 122.232L134.882 121.312C134.882 121.067 135.68 120.729 137.274 120.3H137.32C137.658 120.269 138.179 120.3 138.884 120.392C139.62 120.484 140.326 120.791 141 121.312C141.675 121.803 142.135 122.217 142.38 122.554C143.024 123.842 143.3 125.038 143.208 126.142C143.208 126.449 143.055 126.817 142.748 127.246C142.718 127.307 142.488 127.399 142.058 127.522C141.629 127.645 141.276 127.66 141 127.568C140.724 127.445 140.402 127.261 140.034 127.016C139.666 126.771 139.498 126.387 139.528 125.866C139.252 125.559 139.191 125.161 139.344 124.67C139.406 124.302 139.36 124.026 139.206 123.842L138.654 123.612C138.47 123.673 138.286 123.949 138.102 124.44C137.949 124.931 137.872 125.529 137.872 126.234C137.872 127.522 138.194 128.687 138.838 129.73C139.053 130.067 139.421 130.466 139.942 130.926L140.77 131.938L141.966 133.042L142.84 134.238C143.055 134.453 143.346 134.928 143.714 135.664C144.113 136.369 144.312 137.013 144.312 137.596C144.312 138.148 144.144 138.853 143.806 139.712L143.392 140.31C143.392 140.371 143.224 140.571 142.886 140.908C141.966 141.828 140.97 142.395 139.896 142.61H139.574C138.593 142.733 137.627 142.717 136.676 142.564L135.25 142.196C135.097 142.196 134.928 142.135 134.744 142.012C134.56 141.92 134.392 141.843 134.238 141.782C133.533 141.322 133.104 140.954 132.95 140.678C132.797 140.586 132.69 140.157 132.628 139.39C132.414 138.93 132.46 138.301 132.766 137.504C132.766 137.044 132.812 136.691 132.904 136.446C133.487 135.771 134.238 135.618 135.158 135.986C135.465 136.109 135.618 136.354 135.618 136.722C135.618 136.814 135.664 137.136 135.756 137.688C135.879 138.209 136.063 138.7 136.308 139.16C136.554 139.62 136.891 139.85 137.32 139.85C137.75 139.85 138.194 139.681 138.654 139.344C139.145 138.393 139.39 137.872 139.39 137.78L139.482 137.136C139.544 136.676 139.406 136.201 139.068 135.71C138.976 135.342 138.762 134.974 138.424 134.606L137.734 133.594L137.044 132.95C136.922 132.919 136.538 132.674 135.894 132.214C135.864 132.122 135.695 131.907 135.388 131.57C135.082 131.233 134.79 130.819 134.514 130.328C134.238 129.807 133.886 129.347 133.456 128.948C133.426 128.733 133.226 128.381 132.858 127.89ZM156.512 126.28V125.774C156.512 125.437 156.497 125.268 156.466 125.268L156.19 125.176C155.976 125.176 155.807 125.145 155.684 125.084C155.47 125.145 155.301 125.237 155.178 125.36C154.78 125.605 154.504 125.897 154.35 126.234L153.338 128.258C152.878 129.209 152.618 130.435 152.556 131.938C153.354 132.275 153.936 132.26 154.304 131.892C154.519 131.708 154.703 131.493 154.856 131.248C154.918 131.033 155.04 130.834 155.224 130.65C155.408 130.435 155.592 129.929 155.776 129.132C156.267 128.365 156.512 127.415 156.512 126.28ZM160.606 126.924V127.43C160.545 129.301 159.993 130.987 158.95 132.49C158.797 132.705 158.582 132.95 158.306 133.226L157.294 134.238C157.08 134.453 156.804 134.652 156.466 134.836L155.454 135.112C155.362 135.051 155.102 134.989 154.672 134.928C154.335 135.051 154.044 135.02 153.798 134.836C153.768 134.836 153.599 134.775 153.292 134.652C153.016 134.529 152.664 134.453 152.234 134.422C152.296 134.913 152.326 135.449 152.326 136.032L152.878 138.148C153.216 138.792 153.538 139.206 153.844 139.39C154.182 139.543 154.534 139.635 154.902 139.666C155.301 139.666 155.592 139.62 155.776 139.528C155.991 139.436 156.344 139.298 156.834 139.114L157.754 138.654C158.398 138.286 158.95 138.378 159.41 138.93C159.656 139.206 159.763 139.574 159.732 140.034C159.702 140.463 159.518 140.862 159.18 141.23C158.996 141.659 158.521 142.058 157.754 142.426C157.724 142.426 157.586 142.487 157.34 142.61C155.96 143.285 154.427 143.377 152.74 142.886L151.866 142.472C151.774 142.472 151.682 142.426 151.59 142.334C151.222 142.242 150.824 142.012 150.394 141.644C149.965 141.276 149.658 140.969 149.474 140.724C149.321 140.479 149.214 140.31 149.152 140.218C149.091 140.126 148.984 139.927 148.83 139.62C148.309 138.639 147.926 137.703 147.68 136.814L147.404 135.48C147.466 135.357 147.481 135.005 147.45 134.422V133.686C147.174 133.195 147.343 132.076 147.956 130.328C148.447 127.997 148.846 126.633 149.152 126.234L149.75 125.038C149.75 125.007 149.934 124.777 150.302 124.348C150.364 124.195 150.716 123.888 151.36 123.428C151.483 123.244 151.667 123.137 151.912 123.106C152.035 122.983 152.234 122.876 152.51 122.784C152.756 122.569 153.124 122.431 153.614 122.37C154.074 122.217 154.78 122.171 155.73 122.232C157.908 122.416 159.395 123.336 160.192 124.992L160.514 126.004C160.514 126.157 160.56 126.341 160.652 126.556C160.622 126.617 160.606 126.74 160.606 126.924Z" fill="#333333"/>
</g>
<path d="M86.6867 162.404V164H80.3627V156.08H86.5307V157.676H82.4267V159.284H85.6907V160.784H82.4267V162.404H86.6867ZM91.629 155.96C92.381 155.96 93.021 156.072 93.549 156.296C94.085 156.52 94.581 156.884 95.037 157.388L93.873 158.732C93.609 158.332 93.297 158.04 92.937 157.856C92.585 157.664 92.161 157.568 91.665 157.568C91.249 157.568 90.929 157.64 90.705 157.784C90.481 157.928 90.369 158.12 90.369 158.36C90.369 158.56 90.485 158.724 90.717 158.852C90.957 158.972 91.361 159.084 91.929 159.188C93.025 159.388 93.805 159.68 94.269 160.064C94.741 160.448 94.977 160.988 94.977 161.684C94.977 162.188 94.833 162.624 94.545 162.992C94.257 163.36 93.857 163.64 93.345 163.832C92.841 164.024 92.269 164.12 91.629 164.12C90.733 164.12 90.005 164.012 89.445 163.796C88.885 163.572 88.401 163.232 87.993 162.776L89.049 161.336C89.361 161.768 89.713 162.072 90.105 162.248C90.497 162.424 90.969 162.512 91.521 162.512C91.961 162.512 92.289 162.452 92.505 162.332C92.729 162.204 92.841 162.024 92.841 161.792C92.841 161.608 92.721 161.46 92.481 161.348C92.249 161.228 91.857 161.116 91.305 161.012C90.625 160.876 90.061 160.716 89.613 160.532C89.173 160.34 88.829 160.084 88.581 159.764C88.341 159.444 88.221 159.036 88.221 158.54C88.221 158.044 88.353 157.6 88.617 157.208C88.889 156.816 89.281 156.512 89.793 156.296C90.313 156.072 90.925 155.96 91.629 155.96ZM103.375 157.676H100.795V164H98.7311V157.676H96.1391V156.08H103.375V157.676ZM112.4 156.08V164H110.408V158.108C109.792 158.668 109.168 159.004 108.536 159.116L108.344 157.412C108.752 157.364 109.204 157.204 109.7 156.932C110.204 156.652 110.556 156.368 110.756 156.08H112.4ZM117.469 155.96C118.525 155.96 119.333 156.312 119.893 157.016C120.461 157.72 120.745 158.744 120.745 160.088C120.745 161.464 120.453 162.48 119.869 163.136C119.293 163.792 118.465 164.12 117.385 164.12C116.657 164.12 116.049 163.98 115.561 163.7C115.081 163.42 114.721 162.984 114.481 162.392L116.329 161.66C116.401 161.956 116.517 162.18 116.677 162.332C116.845 162.484 117.093 162.56 117.421 162.56C118.397 162.56 118.885 161.812 118.885 160.316V160.124H118.849C118.745 160.46 118.517 160.72 118.165 160.904C117.813 161.08 117.409 161.168 116.953 161.168C116.481 161.168 116.049 161.064 115.657 160.856C115.265 160.648 114.953 160.352 114.721 159.968C114.497 159.584 114.385 159.144 114.385 158.648C114.385 157.808 114.653 157.152 115.189 156.68C115.733 156.2 116.493 155.96 117.469 155.96ZM117.409 157.58C117.049 157.58 116.769 157.672 116.569 157.856C116.377 158.04 116.281 158.3 116.281 158.636C116.281 158.972 116.377 159.232 116.569 159.416C116.769 159.6 117.049 159.692 117.409 159.692C117.761 159.692 118.037 159.6 118.237 159.416C118.437 159.224 118.537 158.964 118.537 158.636C118.537 158.308 118.437 158.052 118.237 157.868C118.037 157.676 117.761 157.58 117.409 157.58ZM125.452 155.96C126.508 155.96 127.316 156.312 127.876 157.016C128.444 157.72 128.728 158.744 128.728 160.088C128.728 161.464 128.436 162.48 127.852 163.136C127.276 163.792 126.448 164.12 125.368 164.12C124.64 164.12 124.032 163.98 123.544 163.7C123.064 163.42 122.704 162.984 122.464 162.392L124.312 161.66C124.384 161.956 124.5 162.18 124.66 162.332C124.828 162.484 125.076 162.56 125.404 162.56C126.38 162.56 126.868 161.812 126.868 160.316V160.124H126.832C126.728 160.46 126.5 160.72 126.148 160.904C125.796 161.08 125.392 161.168 124.936 161.168C124.464 161.168 124.032 161.064 123.64 160.856C123.248 160.648 122.936 160.352 122.704 159.968C122.48 159.584 122.368 159.144 122.368 158.648C122.368 157.808 122.636 157.152 123.172 156.68C123.716 156.2 124.476 155.96 125.452 155.96ZM125.392 157.58C125.032 157.58 124.752 157.672 124.552 157.856C124.36 158.04 124.264 158.3 124.264 158.636C124.264 158.972 124.36 159.232 124.552 159.416C124.752 159.6 125.032 159.692 125.392 159.692C125.744 159.692 126.02 159.6 126.22 159.416C126.42 159.224 126.52 158.964 126.52 158.636C126.52 158.308 126.42 158.052 126.22 157.868C126.02 157.676 125.744 157.58 125.392 157.58ZM136.562 156.08V157.544C135.618 158.456 134.95 159.436 134.558 160.484C134.166 161.532 133.97 162.704 133.97 164H131.93C131.93 162.792 132.138 161.672 132.554 160.64C132.978 159.6 133.642 158.62 134.546 157.7H130.046V156.08H136.562Z" fill="#444444"/>
<defs>
<filter id="filter0_d" x="49.1974" y="68.5229" width="120.23" height="79.0623" filterUnits="userSpaceOnUse" color-interpolation-filters="sRGB">
<feFlood flood-opacity="0" result="BackgroundImageFix"/>
<feColorMatrix in="SourceAlpha" type="matrix" values="0 0 0 0 0 0 0 0 0 0 0 0 0 0 0 0 0 0 127 0"/>
<feOffset dy="3"/>
<feGaussianBlur stdDeviation="0.5"/>
<feColorMatrix type="matrix" values="0 0 0 0 0 0 0 0 0 0 0 0 0 0 0 0 0 0 0.1 0"/>
<feBlend mode="normal" in2="BackgroundImageFix" result="effect1_dropShadow"/>
<feBlend mode="normal" in="SourceGraphic" in2="effect1_dropShadow" result="shape"/>
</filter>
<linearGradient id="paint0_linear" x1="108" y1="0" x2="108" y2="216" gradientUnits="userSpaceOnUse">
<stop stop-color="#FFF9E0"/>
<stop offset="1" stop-color="#FFE99C"/>
</linearGradient>
</defs>
</svg>
